# This file uses centimeters as units for non-parametric coordinates.

v -9.106670 -0.302299 4.693860
v -8.893330 -0.302299 4.693860
v -9.106670 -0.302299 -4.687060
v -8.893330 -0.302299 -4.687060
v -7.106670 -0.302299 4.693860
v -6.893330 -0.302299 4.693860
v -7.106670 -0.302299 -4.687060
v -6.893330 -0.302299 -4.687060
v -5.106670 -0.302299 4.693860
v -4.893330 -0.302299 4.693860
v -5.106670 -0.302299 -4.687060
v -4.893330 -0.302299 -4.687060
v -3.106670 -0.302299 4.693860
v -2.893330 -0.302299 4.693860
v -3.106670 -0.302299 -4.687060
v -2.893330 -0.302299 -4.687060
v -1.106670 -0.302299 4.693860
v -0.893330 -0.302299 4.693860
v -1.106670 -0.302299 -4.687060
v -0.893330 -0.302299 -4.687060
v 0.893330 -0.302299 4.693860
v 1.106670 -0.302299 4.693860
v 0.893330 -0.302299 -4.687060
v 1.106670 -0.302299 -4.687060
v 2.893330 -0.302299 4.693860
v 3.106670 -0.302299 4.693860
v 2.893330 -0.302299 -4.687060
v 3.106670 -0.302299 -4.687060
v 4.893330 -0.302299 4.693860
v 5.106670 -0.302299 4.693860
v 4.893330 -0.302299 -4.687060
v 5.106670 -0.302299 -4.687060
v 6.893330 -0.302299 4.693860
v 7.106670 -0.302299 4.693860
v 6.893330 -0.302299 -4.687060
v 7.106670 -0.302299 -4.687060
v 8.893330 -0.302299 4.693860
v 9.106670 -0.302299 4.693860
v 8.893330 -0.302299 -4.687060
v 9.106670 -0.302299 -4.687060
v -10.106670 -0.302299 4.693860
v -9.893330 -0.302299 4.693860
v -10.106670 -0.302299 -4.687060
v -9.893330 -0.302299 -4.687060
v -8.106670 -0.302299 4.693860
v -7.893330 -0.302299 4.693860
v -8.106670 -0.302299 -4.687060
v -7.893330 -0.302299 -4.687060
v -6.106670 -0.302299 4.693860
v -5.893330 -0.302299 4.693860
v -6.106670 -0.302299 -4.687060
v -5.893330 -0.302299 -4.687060
v -4.106670 -0.302299 4.693860
v -3.893330 -0.302299 4.693860
v -4.106670 -0.302299 -4.687060
v -3.893330 -0.302299 -4.687060
v -2.106670 -0.302299 4.693860
v -1.893330 -0.302299 4.693860
v -2.106670 -0.302299 -4.687060
v -1.893330 -0.302299 -4.687060
v -0.106670 -0.302299 4.693860
v 0.106670 -0.302299 4.693860
v -0.106670 -0.302299 -4.687060
v 0.106670 -0.302299 -4.687060
v 1.893330 -0.302299 4.693860
v 2.106670 -0.302299 4.693860
v 1.893330 -0.302299 -4.687060
v 2.106670 -0.302299 -4.687060
v 3.893330 -0.302299 4.693860
v 4.106670 -0.302299 4.693860
v 3.893330 -0.302299 -4.687060
v 4.106670 -0.302299 -4.687060
v 5.893330 -0.302299 4.693860
v 6.106670 -0.302299 4.693860
v 5.893330 -0.302299 -4.687060
v 6.106670 -0.302299 -4.687060
v 7.893330 -0.302299 4.693860
v 8.106670 -0.302299 4.693860
v 7.893330 -0.302299 -4.687060
v 8.106670 -0.302299 -4.687060
v 9.893330 -0.302299 4.693860
v 10.106670 -0.302299 4.693860
v 9.893330 -0.302299 -4.687060
v 10.106670 -0.302299 -4.687060
v 11.875132 -0.302299 -2.893330
v 11.875132 -0.302299 -3.106670
v -11.832621 -0.302299 -2.893330
v -11.832621 -0.302299 -3.106670
v 11.875132 -0.302299 3.106670
v 11.875132 -0.302299 2.893330
v -11.832621 -0.302299 3.106670
v -11.832621 -0.302299 2.893330
v 11.875132 -0.302299 0.106670
v 11.875132 -0.302299 -0.106670
v -11.832621 -0.302299 0.106670
v -11.832621 -0.302299 -0.106670
v 11.977845 0.000000 -4.928722
v 11.977845 -1.523059 -4.687494
v 11.977845 -2.897029 -3.987420
v 11.977845 -3.987419 -2.897031
v 11.977845 -4.687492 -1.523059
v 11.977845 -4.928720 0.000000
v 11.977845 -4.687492 1.523057
v 11.977845 -3.987419 2.897028
v 11.977845 -2.897029 3.987418
v 11.977845 -1.523058 4.687490
v 11.977845 -0.000000 4.928719
v -11.977845 0.000000 -4.928722
v -11.977845 -1.523059 -4.687494
v -11.977845 -2.897029 -3.987420
v -11.977845 -3.987419 -2.897031
v -11.977845 -4.687492 -1.523059
v -11.977845 -4.928720 0.000000
v -11.977845 -4.687492 1.523057
v -11.977845 -3.987419 2.897028
v -11.977845 -2.897029 3.987418
v -11.977845 -1.523058 4.687490
v -11.977845 -0.000000 4.928719
v 11.977845 0.000000 0.000000
v -11.977845 0.000000 0.000000
v -11.733465 0.000000 -4.692203
v -11.733465 0.000000 0.000000
v -11.733465 -0.000000 4.692200
v 11.733465 -0.000000 4.692200
v 11.733465 0.000000 0.000000
v 11.733465 0.000000 -4.692203
v -11.733465 -1.567199 -4.447762
v -11.733465 -1.567199 -0.000000
v -11.733465 -1.567199 4.447759
v 11.733465 -1.567199 4.447759
v 11.733465 -1.567199 -0.000000
v 11.733465 -1.567199 -4.447762
vt 0.628581 0.009766
vt 0.633848 0.009766
vt 0.628581 0.241362
vt 0.633848 0.241362
vt 0.873906 0.009766
vt 0.868639 0.009766
vt 0.873906 0.241362
vt 0.868639 0.241362
vt 0.857902 0.009766
vt 0.852635 0.009766
vt 0.857902 0.241362
vt 0.852635 0.241362
vt 0.905914 0.009766
vt 0.900647 0.009766
vt 0.905914 0.241362
vt 0.900647 0.241362
vt 0.921917 0.009766
vt 0.916651 0.009766
vt 0.921917 0.241362
vt 0.916651 0.241362
vt 0.937921 0.009766
vt 0.932654 0.009766
vt 0.937921 0.241363
vt 0.932654 0.241363
vt 0.809891 0.009766
vt 0.804624 0.009766
vt 0.809891 0.241362
vt 0.804624 0.241362
vt 0.889910 0.009766
vt 0.884643 0.009766
vt 0.889910 0.241362
vt 0.884643 0.241362
vt 0.825894 0.009766
vt 0.820628 0.009766
vt 0.825894 0.241362
vt 0.820627 0.241362
vt 0.841898 0.009766
vt 0.836631 0.009766
vt 0.841898 0.241362
vt 0.836631 0.241362
vt 0.708601 0.009766
vt 0.713868 0.009766
vt 0.713867 0.241363
vt 0.708600 0.241363
vt 0.724604 0.009766
vt 0.729871 0.009766
vt 0.729871 0.241362
vt 0.724604 0.241362
vt 0.740608 0.009766
vt 0.745875 0.009766
vt 0.745875 0.241363
vt 0.740608 0.241363
vt 0.788620 0.009766
vt 0.793887 0.009766
vt 0.793887 0.241363
vt 0.788620 0.241363
vt 0.612577 0.009766
vt 0.617844 0.009766
vt 0.617845 0.241362
vt 0.612578 0.241362
vt 0.692597 0.009766
vt 0.697864 0.009766
vt 0.697864 0.241362
vt 0.692597 0.241362
vt 0.660589 0.009766
vt 0.665856 0.009766
vt 0.665856 0.241363
vt 0.660589 0.241362
vt 0.676593 0.009766
vt 0.681860 0.009766
vt 0.681860 0.241363
vt 0.676593 0.241362
vt 0.756612 0.009766
vt 0.761879 0.009766
vt 0.761879 0.241363
vt 0.756612 0.241363
vt 0.772616 0.009766
vt 0.777883 0.009766
vt 0.777883 0.241363
vt 0.772616 0.241363
vt 0.644585 0.009766
vt 0.649852 0.009766
vt 0.649852 0.241362
vt 0.644585 0.241362
vt 0.372520 0.974298
vt 0.372520 0.969031
vt 0.957816 0.969031
vt 0.957816 0.974298
vt 0.009766 0.990234
vt 0.009766 0.984967
vt 0.595062 0.984967
vt 0.595062 0.990234
vt 0.048175 0.649762
vt 0.048175 0.644495
vt 0.633471 0.644495
vt 0.633471 0.649762
vt 0.601184 0.633826
vt 0.601184 0.047836
vt 0.009766 0.047836
vt 0.009766 0.009766
vt 0.601184 0.085906
vt 0.009766 0.085906
vt 0.601184 0.123976
vt 0.009766 0.123976
vt 0.601184 0.162046
vt 0.009766 0.162046
vt 0.601184 0.200116
vt 0.009766 0.200116
vt 0.601184 0.238185
vt 0.009766 0.238186
vt 0.601184 0.276256
vt 0.009766 0.276256
vt 0.601184 0.314325
vt 0.009766 0.314326
vt 0.601184 0.352396
vt 0.009766 0.352396
vt 0.601184 0.390465
vt 0.009766 0.390466
vt 0.601184 0.512146
vt 0.009766 0.512146
vt 0.009766 0.809397
vt 0.009766 0.925238
vt 0.048457 0.660432
vt 0.666499 0.693556
vt 0.666499 0.809397
vt 0.627809 0.958362
vt 0.048457 0.809397
vt 0.048457 0.919203
vt 0.048457 0.699591
vt 0.627808 0.699590
vt 0.627808 0.809397
vt 0.627808 0.919203
vt 0.595151 0.627987
vt 0.015799 0.627987
vt 0.595151 0.512146
vt 0.595151 0.396305
vt 0.015799 0.396305
vt 0.015799 0.512146
vt 0.666499 0.925238
vt 0.627808 0.660432
vt 0.009766 0.693556
vt 0.048457 0.958362
vt 0.601184 0.009766
vt 0.009766 0.633826
vn 0.000000 1.000000 0.000000
vn 0.000000 1.000000 0.000000
vn 0.000000 1.000000 0.000000
vn 0.000000 1.000000 0.000000
vn 0.000000 1.000000 0.000000
vn 0.000000 1.000000 0.000000
vn 0.000000 1.000000 0.000000
vn 0.000000 1.000000 0.000000
vn 0.000000 1.000000 0.000000
vn 0.000000 1.000000 0.000000
vn 0.000000 1.000000 0.000000
vn 0.000000 1.000000 0.000000
vn 0.000000 1.000000 0.000000
vn 0.000000 1.000000 0.000000
vn 0.000000 1.000000 0.000000
vn 0.000000 1.000000 0.000000
vn 0.000000 1.000000 0.000000
vn 0.000000 1.000000 0.000000
vn 0.000000 1.000000 0.000000
vn 0.000000 1.000000 0.000000
vn 0.000000 1.000000 0.000000
vn 0.000000 1.000000 0.000000
vn 0.000000 1.000000 0.000000
vn 0.000000 1.000000 0.000000
vn 0.000000 1.000000 0.000000
vn 0.000000 1.000000 0.000000
vn 0.000000 1.000000 0.000000
vn 0.000000 1.000000 0.000000
vn 0.000000 1.000000 0.000000
vn 0.000000 1.000000 0.000000
vn 0.000000 1.000000 0.000000
vn 0.000000 1.000000 0.000000
vn 0.000000 1.000000 0.000000
vn 0.000000 1.000000 0.000000
vn 0.000000 1.000000 0.000000
vn 0.000000 1.000000 0.000000
vn 0.000000 1.000000 0.000000
vn 0.000000 1.000000 0.000000
vn 0.000000 1.000000 0.000000
vn 0.000000 1.000000 0.000000
vn 0.000000 1.000000 0.000000
vn 0.000000 1.000000 0.000000
vn 0.000000 1.000000 0.000000
vn 0.000000 1.000000 0.000000
vn 0.000000 1.000000 0.000000
vn 0.000000 1.000000 0.000000
vn 0.000000 1.000000 0.000000
vn 0.000000 1.000000 0.000000
vn 0.000000 1.000000 0.000000
vn 0.000000 1.000000 0.000000
vn 0.000000 1.000000 0.000000
vn 0.000000 1.000000 0.000000
vn 0.000000 1.000000 0.000000
vn 0.000000 1.000000 0.000000
vn 0.000000 1.000000 0.000000
vn 0.000000 1.000000 0.000000
vn 0.000000 1.000000 0.000000
vn 0.000000 1.000000 0.000000
vn 0.000000 1.000000 0.000000
vn 0.000000 1.000000 0.000000
vn 0.000000 1.000000 0.000000
vn 0.000000 1.000000 0.000000
vn 0.000000 1.000000 0.000000
vn 0.000000 1.000000 0.000000
vn 0.000000 1.000000 0.000000
vn 0.000000 1.000000 0.000000
vn 0.000000 1.000000 0.000000
vn 0.000000 1.000000 0.000000
vn 0.000000 1.000000 0.000000
vn 0.000000 1.000000 0.000000
vn 0.000000 1.000000 0.000000
vn 0.000000 1.000000 0.000000
vn 0.000000 1.000000 0.000000
vn 0.000000 1.000000 0.000000
vn 0.000000 1.000000 0.000000
vn 0.000000 1.000000 0.000000
vn 0.000000 1.000000 0.000000
vn 0.000000 1.000000 0.000000
vn 0.000000 1.000000 0.000000
vn 0.000000 1.000000 0.000000
vn 0.000000 1.000000 0.000000
vn 0.000000 1.000000 0.000000
vn 0.000000 1.000000 0.000000
vn 0.000000 1.000000 0.000000
vn 0.000000 1.000000 0.000000
vn 0.000000 1.000000 0.000000
vn 0.000000 1.000000 0.000000
vn 0.000000 1.000000 0.000000
vn 0.000000 1.000000 0.000000
vn 0.000000 1.000000 0.000000
vn 0.000000 1.000000 0.000000
vn 0.000000 1.000000 0.000000
vn 0.000000 1.000000 0.000000
vn 0.000000 1.000000 0.000000
vn 0.000000 1.000000 0.000000
vn 0.000000 1.000000 0.000000
vn 0.000000 -0.156434 -0.987688
vn 0.000000 -0.309017 -0.951057
vn 0.000000 -0.309017 -0.951057
vn 0.000000 -0.156434 -0.987688
vn 0.000000 -0.587786 -0.809017
vn 0.000000 -0.587786 -0.809017
vn 0.000000 -0.809017 -0.587785
vn 0.000000 -0.809017 -0.587785
vn 0.000000 -0.951057 -0.309017
vn 0.000000 -0.951057 -0.309017
vn 0.000000 -1.000000 0.000000
vn 0.000000 -1.000000 0.000000
vn 0.000000 -0.951057 0.309017
vn 0.000000 -0.951057 0.309017
vn 0.000000 -0.809017 0.587785
vn 0.000000 -0.809017 0.587785
vn 0.000000 -0.587785 0.809017
vn 0.000000 -0.587785 0.809017
vn 0.000000 -0.309017 0.951057
vn 0.000000 -0.309017 0.951057
vn 0.000000 -0.156435 0.987688
vn 0.000000 -0.156435 0.987688
vn 0.000000 1.000000 0.000000
vn 0.000000 1.000000 0.000000
vn 0.000000 1.000000 0.000000
vn 0.000000 1.000000 0.000000
vn 0.000000 1.000000 0.000000
vn 0.000000 1.000000 0.000000
vn 0.000000 1.000000 0.000000
vn 0.000000 1.000000 0.000000
vn 0.000000 1.000000 0.000000
vn 0.000000 1.000000 0.000000
vn 0.000000 1.000000 0.000000
vn 0.000000 1.000000 0.000000
vn -0.000000 1.000000 0.000000
vn -0.000000 1.000000 0.000000
vn -0.000000 1.000000 0.000000
vn -0.000000 1.000000 0.000000
vn 0.000000 1.000000 0.000000
vn 0.000000 1.000000 0.000000
vn 0.000000 1.000000 0.000000
vn 0.000000 1.000000 0.000000
vn 0.000000 1.000000 0.000000
vn 0.000000 1.000000 0.000000
vn 0.000000 1.000000 0.000000
vn 0.000000 1.000000 0.000000
vn 1.000000 -0.000000 0.000000
vn 1.000000 -0.000000 0.000000
vn 1.000000 -0.000000 0.000000
vn 1.000000 -0.000000 0.000000
vn 1.000000 0.000000 0.000000
vn 1.000000 0.000000 0.000000
vn 1.000000 0.000000 0.000000
vn 1.000000 0.000000 0.000000
vn 0.000000 0.154110 -0.988054
vn 0.000000 0.154110 -0.988054
vn 0.000000 0.154110 -0.988054
vn 0.000000 0.154110 -0.988054
vn -1.000000 0.000000 0.000000
vn -1.000000 0.000000 0.000000
vn -1.000000 0.000000 0.000000
vn -1.000000 0.000000 0.000000
vn -1.000000 -0.000001 0.000000
vn -1.000000 -0.000001 0.000000
vn -1.000000 -0.000001 0.000000
vn -1.000000 -0.000001 0.000000
vn 0.000000 0.154110 0.988054
vn 0.000000 0.154110 0.988054
vn 0.000000 0.154110 0.988054
vn 0.000000 0.154110 0.988054
vn 0.000000 1.000000 0.000000
vn 0.000000 1.000000 0.000000
vn 0.000000 1.000000 0.000000
vn 0.000000 1.000000 0.000000
vn 0.000000 1.000000 0.000000
vn 0.000000 1.000000 0.000000
s off
f 1/1/1 2/2/2 4/4/3 3/3/4
f 5/6/5 6/5/6 8/7/7 7/8/8
f 9/10/9 10/9/10 12/11/11 11/12/12
f 13/14/13 14/13/14 16/15/15 15/16/16
f 17/18/17 18/17/18 20/19/19 19/20/20
f 21/22/21 22/21/22 24/23/23 23/24/24
f 25/26/25 26/25/26 28/27/27 27/28/28
f 29/30/29 30/29/30 32/31/31 31/32/32
f 33/34/33 34/33/34 36/35/35 35/36/36
f 37/38/37 38/37/38 40/39/39 39/40/40
f 41/41/41 42/42/42 44/43/43 43/44/44
f 45/45/45 46/46/46 48/47/47 47/48/48
f 49/49/49 50/50/50 52/51/51 51/52/52
f 53/53/53 54/54/54 56/55/55 55/56/56
f 57/57/57 58/58/58 60/59/59 59/60/60
f 61/61/61 62/62/62 64/63/63 63/64/64
f 65/65/65 66/66/66 68/67/67 67/68/68
f 69/69/69 70/70/70 72/71/71 71/72/72
f 73/73/73 74/74/74 76/75/75 75/76/76
f 77/77/77 78/78/78 80/79/79 79/80/80
f 81/81/81 82/82/82 84/83/83 83/84/84
f 85/85/85 86/86/86 88/87/87 87/88/88
f 89/89/89 90/90/90 92/91/91 91/92/92
f 93/93/93 94/94/94 96/95/95 95/96/96
s 1
f 97/143/97 98/98/98 109/99/99 108/100/100
f 98/98/98 99/101/101 110/102/102 109/99/99
f 99/101/101 100/103/103 111/104/104 110/102/102
f 100/103/103 101/105/105 112/106/106 111/104/104
f 101/105/105 102/107/107 113/108/108 112/106/106
f 102/107/107 103/109/109 114/110/110 113/108/108
f 103/109/109 104/111/111 115/112/112 114/110/110
f 104/111/111 105/113/113 116/114/114 115/112/112
f 105/113/113 106/115/115 117/116/116 116/114/114
f 106/115/115 107/117/117 118/118/118 117/116/116
s off
f 108/144/119 120/120/120 122/138/121 121/134/122
f 120/120/123 118/118/124 123/137/125 122/138/126
f 118/118/127 107/117/128 124/136/129 123/137/130
f 107/117/131 119/119/132 125/135/133 124/136/134
f 119/119/135 97/97/136 126/133/137 125/135/138
f 97/97/139 108/144/140 121/134/141 126/133/142
f 121/122/143 122/121/144 128/127/145 127/128/146
f 122/121/147 123/141/148 129/129/149 128/127/150
f 123/123/151 124/140/152 130/130/153 129/129/154
f 124/124/155 125/125/156 131/131/157 130/130/158
f 125/125/159 126/139/160 132/132/161 131/131/162
f 126/126/163 121/142/164 127/128/165 132/132/166
f 128/127/167 129/129/168 130/130/169 131/131/170 132/132/171 127/128/172
