# This file uses centimeters as units for non-parametric coordinates.

v 1.894372 0.784673 -4.332645
v 1.449889 1.449888 -4.332645
v 0.784678 1.894371 -4.332645
v 0.000002 2.050452 -4.332645
v -0.784674 1.894372 -4.332645
v -1.449884 1.449890 -4.332645
v -1.894369 0.784675 -4.332645
v -2.050449 0.000001 -4.332645
v -1.894369 -0.784673 -4.332644
v -1.449888 -1.449888 -4.332644
v -0.784676 -1.894371 -4.332644
v 0.000002 -2.050452 -4.332645
v 0.784677 -1.894370 -4.332645
v 1.449888 -1.449888 -4.332645
v 1.894371 -0.784674 -4.332645
v 2.050451 0.000000 -4.332645
v 1.608353 0.666178 4.332645
v 1.230919 1.230918 4.332645
v 0.666184 1.608357 4.332645
v 0.000002 1.740803 4.332645
v -0.666183 1.608357 4.332645
v -1.230919 1.230918 4.332645
v -1.608353 0.666179 4.332645
v -1.740805 0.000001 4.332645
v -1.608353 -0.666178 4.332645
v -1.230919 -1.230917 4.332645
v -0.666183 -1.608356 4.332645
v 0.000002 -1.740803 4.332645
v 0.666184 -1.608357 4.332645
v 1.230919 -1.230917 4.332645
v 1.608353 -0.666178 4.332645
v 1.740805 0.000000 4.332645
v -0.000002 0.000000 -4.332644
v 0.000002 0.000000 4.332645
vt 0.978287 0.664783
vt 0.944262 0.613862
vt 0.893341 0.579837
vt 0.833276 0.567889
vt 0.773210 0.579837
vt 0.722289 0.613861
vt 0.688265 0.664782
vt 0.676317 0.724848
vt 0.688265 0.784913
vt 0.722289 0.835834
vt 0.773210 0.869859
vt 0.833276 0.881807
vt 0.893341 0.869859
vt 0.944262 0.835834
vt 0.978287 0.784913
vt 0.990234 0.724848
vt 0.009766 0.009766
vt 0.071008 0.009766
vt 0.132250 0.009766
vt 0.193492 0.009766
vt 0.254735 0.009766
vt 0.315977 0.009766
vt 0.377219 0.009766
vt 0.438461 0.009766
vt 0.499703 0.009766
vt 0.560946 0.009766
vt 0.622188 0.009766
vt 0.683430 0.009766
vt 0.744672 0.009766
vt 0.805914 0.009766
vt 0.867157 0.009766
vt 0.928399 0.009766
vt 0.989641 0.009766
vt 0.009766 0.556257
vt 0.071008 0.556257
vt 0.132250 0.556257
vt 0.193492 0.556257
vt 0.254735 0.556257
vt 0.315977 0.556257
vt 0.377219 0.556257
vt 0.438461 0.556257
vt 0.499703 0.556257
vt 0.560946 0.556257
vt 0.622188 0.556257
vt 0.683430 0.556257
vt 0.744672 0.556257
vt 0.805915 0.556257
vt 0.867157 0.556257
vt 0.928399 0.556257
vt 0.989641 0.556257
vt 0.311735 0.664783
vt 0.277711 0.613862
vt 0.226790 0.579837
vt 0.166724 0.567889
vt 0.106659 0.579837
vt 0.055738 0.613861
vt 0.021713 0.664782
vt 0.009766 0.724848
vt 0.021713 0.784913
vt 0.055738 0.835834
vt 0.106659 0.869859
vt 0.166724 0.881807
vt 0.226790 0.869859
vt 0.277711 0.835834
vt 0.311735 0.784913
vt 0.323683 0.724848
vt 0.833276 0.724848
vt 0.166724 0.724848
vn 0.923003 0.383133 0.035708
vn 0.706123 0.707189 0.035710
vn 0.922892 0.383399 0.035710
vn 0.705931 0.707380 0.035709
vn 0.381747 0.923577 0.035709
vn 0.381508 0.923676 0.035709
vn -0.000754 0.999362 0.035708
vn -0.001029 0.999362 0.035707
vn -0.383133 0.923003 0.035708
vn -0.383397 0.922893 0.035710
vn -0.707190 0.706121 0.035710
vn -0.707387 0.705924 0.035709
vn -0.923577 0.381747 0.035709
vn -0.923676 0.381508 0.035709
vn -0.999362 -0.000754 0.035708
vn -0.999362 -0.001029 0.035707
vn -0.923003 -0.383132 0.035708
vn -0.922892 -0.383399 0.035710
vn -0.706123 -0.707188 0.035710
vn -0.705931 -0.707380 0.035709
vn -0.381746 -0.923577 0.035709
vn -0.381507 -0.923676 0.035709
vn 0.000755 -0.999362 0.035708
vn 0.001029 -0.999362 0.035707
vn 0.383134 -0.923002 0.035708
vn 0.383399 -0.922892 0.035710
vn 0.707190 -0.706121 0.035710
vn 0.707387 -0.705924 0.035709
vn 0.923577 -0.381746 0.035709
vn 0.923676 -0.381508 0.035709
vn 0.999362 0.000754 0.035708
vn 0.999362 0.001029 0.035708
vn 0.000001 -0.000001 -1.000000
vn -0.000000 -0.000000 -1.000000
vn 0.000000 -0.000001 -1.000000
vn 0.000000 0.000000 1.000000
vn 0.000000 0.000000 1.000000
vn -0.000000 0.000000 1.000000
vn -0.000001 -0.000000 -1.000000
vn -0.000001 0.000000 -1.000000
vn -0.000001 0.000000 -1.000000
vn -0.000001 0.000001 -1.000000
vn 0.000000 0.000001 -1.000000
vn -0.000001 0.000001 -1.000000
vn -0.000001 0.000000 -1.000000
vn 0.000000 0.000000 -1.000000
vn 0.000001 -0.000000 -1.000000
vn 0.000001 -0.000001 -1.000000
vn 0.000000 -0.000001 -1.000000
vn -0.000000 -0.000001 -1.000000
vn -0.000000 -0.000001 -1.000000
vn -0.000000 -0.000001 -1.000000
vn 0.000000 0.000000 1.000000
vn -0.000000 0.000000 1.000000
vn 0.000000 0.000000 1.000000
vn 0.000000 0.000000 1.000000
vn 0.000000 0.000000 1.000000
vn 0.000000 0.000000 1.000000
vn 0.000000 0.000000 1.000000
vn 0.000000 0.000000 1.000000
vn 0.000000 0.000000 1.000000
vn -0.000000 0.000000 1.000000
vn -0.000000 0.000000 1.000000
vn 0.000000 0.000000 1.000000
vn 0.000000 0.000000 1.000000
vn 0.000000 0.000000 1.000000
s 1
f 1/17/1 2/18/2 17/34/3
f 17/34/3 2/18/2 18/35/4
f 2/18/2 3/19/5 18/35/4
f 18/35/4 3/19/5 19/36/6
f 3/19/5 4/20/7 19/36/6
f 19/36/6 4/20/7 20/37/8
f 4/20/7 5/21/9 20/37/8
f 20/37/8 5/21/9 21/38/10
f 5/21/9 6/22/11 21/38/10
f 21/38/10 6/22/11 22/39/12
f 6/22/11 7/23/13 22/39/12
f 22/39/12 7/23/13 23/40/14
f 7/23/13 8/24/15 23/40/14
f 23/40/14 8/24/15 24/41/16
f 8/24/15 9/25/17 24/41/16
f 24/41/16 9/25/17 25/42/18
f 9/25/17 10/26/19 25/42/18
f 25/42/18 10/26/19 26/43/20
f 10/26/19 11/27/21 26/43/20
f 26/43/20 11/27/21 27/44/22
f 11/27/21 12/28/23 27/44/22
f 27/44/22 12/28/23 28/45/24
f 12/28/23 13/29/25 28/45/24
f 28/45/24 13/29/25 29/46/26
f 13/29/25 14/30/27 29/46/26
f 29/46/26 14/30/27 30/47/28
f 14/30/27 15/31/29 30/47/28
f 30/47/28 15/31/29 31/48/30
f 15/31/29 16/32/31 31/48/30
f 31/48/30 16/32/31 32/49/32
f 16/32/31 1/33/1 32/49/32
f 32/49/32 1/33/1 17/50/3
s 2
f 8/8/33 33/67/34 9/9/35
s 3
f 26/56/36 34/68/37 25/57/38
s 2
f 1/1/39 16/16/40 33/67/34
f 33/67/34 16/16/40 15/15/41
f 33/67/34 15/15/41 14/14/42
f 33/67/34 14/14/42 13/13/43
f 33/67/34 13/13/43 12/12/44
f 33/67/34 12/12/44 11/11/45
f 33/67/34 11/11/45 10/10/46
f 33/67/34 10/10/46 9/9/35
f 7/7/47 33/67/34 8/8/33
f 6/6/48 33/67/34 7/7/47
f 5/5/49 33/67/34 6/6/48
f 4/4/50 33/67/34 5/5/49
f 3/3/51 33/67/34 4/4/50
f 2/2/52 33/67/34 3/3/51
f 1/1/39 33/67/34 2/2/52
s 3
f 17/65/53 18/64/54 34/68/37
f 34/68/37 18/64/54 19/63/55
f 34/68/37 19/63/55 20/62/56
f 34/68/37 20/62/56 21/61/57
f 34/68/37 21/61/57 22/60/58
f 34/68/37 22/60/58 23/59/59
f 34/68/37 23/59/59 24/58/60
f 34/68/37 24/58/60 25/57/38
f 27/55/61 34/68/37 26/56/36
f 28/54/62 34/68/37 27/55/61
f 29/53/63 34/68/37 28/54/62
f 30/52/64 34/68/37 29/53/63
f 31/51/65 34/68/37 30/52/64
f 32/66/66 34/68/37 31/51/65
f 17/65/53 34/68/37 32/66/66
