# This file uses centimeters as units for non-parametric coordinates.

v 3.816182 -2.492565 5.501360
v 3.376370 -2.492565 5.941172
v 3.376370 -2.932380 5.501360
v 3.376369 2.932380 5.501360
v 3.376370 2.492566 5.941172
v 3.816182 2.492566 5.501360
v -3.376368 -2.932380 5.501360
v -3.376368 -2.492564 5.941172
v -3.816180 -2.492565 5.501360
v -3.816180 2.492567 5.501360
v -3.376368 2.492567 5.941172
v -3.376368 2.932380 5.501360
v -3.376368 -2.932380 -5.501357
v -3.816180 -2.492565 -5.501357
v -3.376368 -2.492564 -5.941172
v -3.376368 2.492567 -5.941172
v -3.816180 2.492567 -5.501357
v -3.376368 2.932380 -5.501357
v 3.376370 -2.932380 -5.501357
v 3.376370 -2.492565 -5.941172
v 3.816182 -2.492565 -5.501357
v 3.816182 2.492566 -5.501357
v 3.376370 2.492566 -5.941172
v 3.376369 2.932380 -5.501357
vt 0.242964 0.310246
vt 0.242964 0.286571
vt 0.661771 0.286571
vt 0.685446 0.310246
vt 0.219289 0.286571
vt 0.242964 0.500000
vt 0.029535 0.286571
vt 0.219289 0.029535
vt 0.242964 0.029535
vt 0.242964 0.523675
vt 0.661770 0.500000
vt 0.898875 0.286571
vt 0.242963 0.780711
vt 0.029535 0.029535
vt 0.219289 0.005860
vt 0.661770 0.994141
vt 0.661771 0.029535
vt 0.242963 0.804386
vt 0.661770 0.780711
vt 0.887038 0.009032
vt 0.685446 0.029535
vt 0.685446 0.286571
vt 0.875200 0.029536
vt 0.875200 0.286571
vt 0.887037 0.307075
vt 0.875200 0.310247
vt 0.673608 0.307075
vt 0.661771 0.310246
vt 0.898875 0.029536
vt 0.661770 0.523676
vt 0.661770 0.804387
vt 0.875200 0.005860
vt 0.661771 0.005860
vt 0.673609 0.009032
vt 0.685446 0.005860
vt 0.017697 0.009031
vt 0.029535 0.005859
vt 0.005860 0.029535
vt 0.231126 0.009031
vt 0.242964 0.005860
vt 0.242963 0.994140
vt 0.005859 0.286570
vt 0.029535 0.310246
vt 0.017697 0.307074
vt 0.231126 0.307074
vt 0.219289 0.310246
vn 0.996113 -0.079805 0.037291
vn 0.060260 -0.997475 0.037588
vn 0.996113 -0.079805 -0.037291
vn 0.060260 -0.997475 -0.037588
vn 0.059302 -0.079161 0.995096
vn 0.059302 0.079161 0.995096
vn 0.996113 0.079805 0.037291
vn -0.060260 -0.997475 0.037588
vn -0.059302 -0.079161 0.995097
vn 0.060260 0.997475 0.037588
vn 0.060260 0.997475 -0.037588
vn 0.996113 0.079805 -0.037291
vn -0.059302 0.079161 0.995097
vn -0.060260 0.997475 0.037588
vn -0.996113 -0.079805 0.037291
vn -0.060260 -0.997475 -0.037588
vn -0.996113 -0.079805 -0.037291
vn -0.996113 0.079805 0.037291
vn -0.996113 0.079805 -0.037291
vn -0.060260 0.997475 -0.037588
vn -0.059303 -0.079162 -0.995096
vn 0.059302 -0.079162 -0.995096
vn -0.059302 0.079162 -0.995096
vn 0.059302 0.079162 -0.995096
s 1
f 1/1/1 3/2/2 21/28/3
f 21/28/3 3/2/2 19/3/4
f 2/5/5 1/46/1 5/7/6
f 5/7/6 1/46/1 6/43/7
f 3/2/2 2/5/5 7/9/8
f 7/9/8 2/5/5 8/8/9
f 4/10/10 6/6/7 24/30/11
f 24/30/11 6/6/7 22/11/12
f 5/7/6 4/42/10 11/14/13
f 11/14/13 4/42/10 12/38/14
f 7/9/8 9/40/15 13/17/16
f 13/17/16 9/40/15 14/33/17
f 9/15/15 8/8/9 10/37/18
f 10/37/18 8/8/9 11/14/13
f 10/18/18 12/13/14 17/31/19
f 17/31/19 12/13/14 18/19/20
f 13/17/16 15/21/21 19/3/4
f 19/3/4 15/21/21 20/22/22
f 15/21/21 14/35/17 16/23/23
f 16/23/23 14/35/17 17/32/19
f 16/23/23 18/29/20 23/24/24
f 23/24/24 18/29/20 24/12/11
f 21/4/3 20/22/22 22/26/12
f 22/26/12 20/22/22 23/24/24
f 2/5/5 5/7/6 8/8/9
f 8/8/9 5/7/6 11/14/13
f 9/41/15 10/18/18 14/16/17
f 14/16/17 10/18/18 17/31/19
f 15/21/21 16/23/23 20/22/22
f 20/22/22 16/23/23 23/24/24
f 21/28/3 22/11/12 1/1/1
f 1/1/1 22/11/12 6/6/7
f 4/10/10 24/30/11 12/13/14
f 12/13/14 24/30/11 18/19/20
f 19/3/4 3/2/2 13/17/16
f 13/17/16 3/2/2 7/9/8
f 1/45/1 2/5/5 3/2/2
f 4/42/10 5/7/6 6/44/7
f 7/9/8 8/8/9 9/39/15
f 10/36/18 11/14/13 12/38/14
f 13/17/16 14/34/17 15/21/21
f 16/23/23 17/20/19 18/29/20
f 19/3/4 20/22/22 21/27/3
f 22/25/12 23/24/24 24/12/11
