# This file uses centimeters as units for non-parametric coordinates.

v -0.005430 -3.525026 2.044803
v 1.511034 -3.525024 2.044803
v -0.005430 3.527029 2.033764
v 1.589323 -1.751780 2.042027
v 1.501245 3.337601 2.034060
v 2.665878 3.059765 2.034495
v 3.859863 2.415702 2.035503
v 5.063633 1.380146 2.037125
v 5.161507 -0.059527 2.039378
v 4.515572 -1.284512 2.041296
v 3.076916 -1.726521 2.041987
v 1.416023 3.336940 1.612029
v 1.425249 -3.525689 1.620031
v 1.499121 -1.752480 1.595326
v 2.902557 -1.727873 1.178600
v 4.259832 -1.286494 0.774930
v 4.869232 -0.061793 0.592080
v 4.776899 1.377923 0.617241
v 3.641224 2.414007 0.952806
v 2.514774 3.058593 1.286242
v 1.124109 3.336282 1.191689
v 1.131443 -3.526352 1.196963
v 1.190138 -1.753176 1.150412
v 2.305359 -1.729219 0.318673
v 3.383902 -1.288469 -0.486361
v 3.868155 -0.064050 -0.849416
v 3.794781 1.375709 -0.796951
v 2.892336 2.412319 -0.125554
v 1.997211 3.057427 0.540987
v 0.650703 3.335807 0.888230
v 0.654961 -3.526830 0.891535
v 0.689056 -1.753679 0.829215
v 1.336874 -1.730191 -0.302135
v 1.963388 -1.289894 -1.396928
v 2.244684 -0.065679 -1.890080
v 2.202059 1.374111 -1.817903
v 1.677835 2.411100 -0.904058
v 1.157869 3.056585 0.002964
v 0.054203 3.335610 0.762192
v 0.054577 -3.527029 0.764679
v 0.057676 -1.753888 0.695809
v 0.116547 -1.730595 -0.559981
v 0.173489 -1.290487 -1.775124
v 0.199045 -0.066355 -2.322311
v 0.195173 1.373447 -2.241946
v 0.147532 2.410594 -1.227401
v 0.100277 3.056235 -0.220496
v -0.549120 3.335743 0.846957
v -0.552656 -3.526895 0.849999
v -0.580915 -1.753747 0.785533
v -1.117712 -1.730323 -0.386566
v -1.636858 -1.290088 -1.520771
v -1.869947 -0.065900 -2.031616
v -1.834629 1.373893 -1.956758
v -1.400249 2.410934 -1.009936
v -0.969395 3.056470 -0.070204
v -1.084410 3.336210 1.145643
v -1.091419 -3.526424 1.150626
v -1.147488 -1.753253 1.101684
v -2.212790 -1.729366 0.224484
v -3.243059 -1.288685 -0.624521
v -3.705635 -0.064297 -1.007314
v -3.635548 1.375467 -0.951857
v -2.773500 2.412134 -0.243670
v -1.918447 3.057300 0.459364
v -1.439053 3.336988 1.642518
v -1.448364 -3.525641 1.650727
v -1.522860 -1.752429 1.627605
v -2.938311 -1.727775 1.240980
v -4.307215 -1.286351 0.866418
v -4.921841 -0.061629 0.696643
v -4.828712 1.378084 0.719824
v -3.683313 2.414129 1.031034
v -2.547216 3.058679 1.340313
v -1.508942 3.337730 2.116562
v -1.518702 -3.524894 2.127850
v -1.596832 -1.751644 2.129360
v -3.081272 -1.726257 2.210771
v -4.516916 -1.284124 2.288853
v -5.161507 -0.059084 2.322311
v -5.063833 1.380580 2.314697
v -3.862589 2.416033 2.247168
v -2.671120 3.059994 2.180784
vt 0.451560 0.963750
vt 0.357075 0.990234
vt 0.439586 0.945413
vt 0.541661 0.056690
vt 0.411423 0.362441
vt 0.599984 0.009766
vt 0.459616 0.447906
vt 0.437195 0.460293
vt 0.551623 0.501662
vt 0.510660 0.524558
vt 0.625225 0.582927
vt 0.562281 0.598774
vt 0.656091 0.679935
vt 0.584233 0.677164
vt 0.644377 0.782968
vt 0.579382 0.760681
vt 0.587240 0.871775
vt 0.543071 0.841416
vt 0.520004 0.929107
vt 0.494147 0.901509
vt 0.417030 0.931197
vt 0.363901 0.379944
vt 0.404110 0.471268
vt 0.455252 0.536651
vt 0.489807 0.603870
vt 0.505819 0.673289
vt 0.505565 0.747889
vt 0.484575 0.822733
vt 0.453872 0.882503
vt 0.387669 0.923843
vt 0.332887 0.387857
vt 0.363620 0.480176
vt 0.393710 0.543056
vt 0.414304 0.605898
vt 0.425503 0.672058
vt 0.428495 0.743611
vt 0.420038 0.815162
vt 0.405827 0.873740
vt 0.354276 0.923357
vt 0.297918 0.394549
vt 0.317945 0.487765
vt 0.328227 0.549904
vt 0.335909 0.611564
vt 0.342639 0.676930
vt 0.348235 0.747512
vt 0.351488 0.817109
vt 0.353133 0.874134
vt 0.320966 0.929517
vt 0.610127 0.029128
vt 0.272173 0.494015
vt 0.263611 0.559073
vt 0.259013 0.623040
vt 0.261329 0.688983
vt 0.269208 0.759183
vt 0.283523 0.827551
vt 0.300663 0.882865
vt 0.289427 0.943030
vt 0.612216 0.054859
vt 0.227143 0.498677
vt 0.198541 0.568507
vt 0.180362 0.637546
vt 0.177444 0.706100
vt 0.187864 0.777544
vt 0.214317 0.846685
vt 0.248765 0.900689
vt 0.264605 0.965296
vt 0.603556 0.081617
vt 0.184971 0.499373
vt 0.133750 0.570568
vt 0.098015 0.646201
vt 0.087653 0.722593
vt 0.101551 0.801696
vt 0.145026 0.877373
vt 0.201677 0.930756
vt 0.339171 0.368688
vt 0.167493 0.403489
vt 0.156485 0.494590
vt 0.086924 0.556094
vt 0.030649 0.635858
vt 0.009766 0.728548
vt 0.028302 0.828383
vt 0.095623 0.915869
vt 0.175772 0.966413
vt 0.255687 0.988792
vt 0.396625 0.354137
vt 0.455520 0.320433
vt 0.514891 0.266253
vt 0.519695 0.190957
vt 0.487804 0.126901
vt 0.416818 0.103808
vt 0.343426 0.102512
vt 0.339563 0.009772
vt 0.264747 0.009772
vt 0.264843 0.378636
vt 0.112656 0.103895
vt 0.186087 0.102565
vt 0.041643 0.127021
vt 0.009766 0.191091
vt 0.014606 0.266385
vt 0.074034 0.320537
vt 0.132977 0.354214
vt 0.190468 0.368738
vt 0.189890 0.009822
vt 0.193414 0.403546
vt 0.584480 0.105184
vt 0.227448 0.402565
vt 0.262572 0.399489
vt 0.558425 0.120618
vt 0.528191 0.125465
vt 0.498637 0.116840
vt 0.390474 0.371085
vt 0.480833 0.100250
vn 0.185296 0.981910 -0.038956
vn 0.170553 0.981888 -0.082504
vn -0.006546 0.994619 -0.103396
vn -0.000000 -0.999999 0.001565
vn 0.000001 -0.999999 0.001566
vn 0.000001 -0.999999 0.001565
vn 0.911193 -0.043666 -0.409660
vn 0.600175 -0.753558 -0.268217
vn 0.979294 -0.043551 -0.197701
vn 0.616967 -0.777260 -0.123367
vn 0.173778 -0.981270 -0.083130
vn 0.187660 -0.981561 -0.036361
vn 0.618745 -0.732580 -0.283692
vn 0.659490 -0.740029 -0.132023
vn 0.896935 -0.186580 -0.400869
vn 0.962258 -0.190826 -0.194024
vn 0.882056 0.435896 -0.178807
vn 0.825869 0.424776 -0.370819
vn 0.584425 0.802634 -0.119275
vn 0.543111 0.799882 -0.255383
vn 0.387165 0.918566 -0.079623
vn 0.359411 0.917102 -0.172473
vn 0.133561 0.979615 -0.150052
vn 0.000001 -0.999999 0.001566
vn 0.685193 -0.041771 -0.727163
vn 0.463331 -0.738548 -0.489766
vn 0.135349 -0.978921 -0.152951
vn 0.476740 -0.712623 -0.514672
vn 0.677298 -0.177153 -0.714061
vn 0.628447 0.404411 -0.664460
vn 0.418904 0.782281 -0.461039
vn 0.279368 0.907735 -0.313002
vn 0.073919 0.977150 -0.199282
vn 0.000000 -0.999999 0.001565
vn 0.370765 -0.039741 -0.927876
vn 0.257444 -0.721797 -0.642442
vn 0.073905 -0.976554 -0.202189
vn 0.261755 -0.693276 -0.671456
vn 0.367201 -0.168105 -0.914824
vn 0.342620 0.385458 -0.856758
vn 0.229409 0.764157 -0.602856
vn 0.153345 0.898039 -0.412324
vn 0.007152 0.977490 -0.210861
vn -0.000000 -0.999999 0.001565
vn 0.034300 -0.038848 -0.998656
vn 0.026566 -0.636678 -0.770672
vn 0.007191 -0.976732 -0.214344
vn 0.025171 -0.679416 -0.733322
vn 0.034236 -0.160230 -0.986486
vn 0.032272 0.366778 -0.929749
vn 0.022267 0.757206 -0.652797
vn 0.015035 0.895591 -0.444625
vn -0.062824 0.976924 -0.204139
vn -0.000001 -0.999999 0.001564
vn -0.317486 -0.039505 -0.947440
vn -0.221999 -0.716706 -0.661097
vn -0.062820 -0.976268 -0.207255
vn -0.223848 -0.690228 -0.688097
vn -0.313819 -0.166727 -0.934730
vn -0.292839 0.382288 -0.876414
vn -0.195402 0.762007 -0.617384
vn -0.130420 0.896882 -0.422602
vn -0.129710 0.979253 -0.155691
vn -0.000001 -0.999999 0.001564
vn -0.664333 -0.041606 -0.746277
vn -0.446678 -0.741968 -0.499962
vn -0.132472 -0.978146 -0.160256
vn -0.464911 -0.706658 -0.533378
vn -0.656732 -0.175249 -0.733479
vn -0.610397 0.399229 -0.684128
vn -0.406189 0.779733 -0.476474
vn -0.271508 0.905899 -0.325008
vn -0.172697 0.981463 -0.083105
vn -0.000001 -0.999999 0.001565
vn -0.914559 -0.043665 -0.402088
vn -0.585314 -0.769450 -0.255646
vn -0.178286 -0.980296 -0.085057
vn -0.626605 -0.726271 -0.282662
vn -0.900603 -0.185182 -0.393220
vn -0.830819 0.420396 -0.364702
vn -0.546401 0.798068 -0.254034
vn -0.363495 0.915347 -0.173239
vn -0.187797 0.981773 -0.029224
vn -0.000001 -0.999999 0.001566
vn -0.988384 -0.043423 -0.145641
vn -0.614505 -0.783835 -0.089368
vn -0.190678 -0.981293 -0.026574
vn -0.666943 -0.738746 -0.097168
vn -0.971233 -0.190499 -0.142887
vn -0.890559 0.435303 -0.131971
vn -0.590702 0.802040 -0.088336
vn -0.391969 0.918070 -0.059221
vn 0.000000 0.001565 0.999999
vn 0.018758 -0.000471 0.999824
vn 0.027398 -0.014386 0.999521
vn 0.054796 0.001564 0.998496
vn 0.035012 -0.000965 0.999386
vn 0.054786 0.001556 0.998497
vn 0.054787 0.001561 0.998497
vn 0.054791 0.001563 0.998497
vn 0.054787 0.001561 0.998497
vn 0.054788 0.001561 0.998497
vn 0.054796 0.001563 0.998496
vn 0.044587 0.007453 0.998978
vn 0.032701 0.011444 0.999400
vn 0.000000 0.001565 0.999999
vn 0.000000 0.001565 0.999999
vn -0.000000 0.001565 0.999999
vn 0.000000 0.001565 0.999999
vn -0.000000 0.001565 0.999999
vn 0.000000 0.001565 0.999999
vn -0.000001 0.001566 0.999999
s 1
f 5/1/1 12/3/2 3/2/3
s 2
f 1/4/4 13/49/5 2/6/6
s 1
f 13/111/7 14/8/8 2/5/9
f 14/8/8 4/7/10 2/5/9
f 14/8/8 15/10/11 4/7/10
f 15/10/11 11/9/12 4/7/10
f 15/10/11 16/12/13 11/9/12
f 16/12/13 10/11/14 11/9/12
f 16/12/13 17/14/15 10/11/14
f 17/14/15 9/13/16 10/11/14
f 9/13/16 17/14/15 8/15/17
f 17/14/15 18/16/18 8/15/17
f 8/15/17 18/16/18 7/17/19
f 18/16/18 19/18/20 7/17/19
f 7/17/19 19/18/20 6/19/21
f 19/18/20 20/20/22 6/19/21
f 6/19/21 20/20/22 5/1/1
f 20/20/22 12/3/2 5/1/1
f 3/2/3 12/3/2 21/21/23
s 2
f 22/58/24 13/49/5 1/4/4
s 1
f 22/22/25 23/23/26 13/111/7
f 23/23/26 14/8/8 13/111/7
f 23/23/26 24/24/27 14/8/8
f 24/24/27 15/10/11 14/8/8
f 24/24/27 25/25/28 15/10/11
f 25/25/28 16/12/13 15/10/11
f 25/25/28 26/26/29 16/12/13
f 26/26/29 17/14/15 16/12/13
f 17/14/15 26/26/29 18/16/18
f 26/26/29 27/27/30 18/16/18
f 18/16/18 27/27/30 19/18/20
f 27/27/30 28/28/31 19/18/20
f 19/18/20 28/28/31 20/20/22
f 28/28/31 29/29/32 20/20/22
f 20/20/22 29/29/32 12/3/2
f 29/29/32 21/21/23 12/3/2
f 3/2/3 21/21/23 30/30/33
s 2
f 31/67/34 22/58/24 1/4/4
s 1
f 31/31/35 32/32/36 22/22/25
f 32/32/36 23/23/26 22/22/25
f 32/32/36 33/33/37 23/23/26
f 33/33/37 24/24/27 23/23/26
f 33/33/37 34/34/38 24/24/27
f 34/34/38 25/25/28 24/24/27
f 34/34/38 35/35/39 25/25/28
f 35/35/39 26/26/29 25/25/28
f 26/26/29 35/35/39 27/27/30
f 35/35/39 36/36/40 27/27/30
f 27/27/30 36/36/40 28/28/31
f 36/36/40 37/37/41 28/28/31
f 28/28/31 37/37/41 29/29/32
f 37/37/41 38/38/42 29/29/32
f 29/29/32 38/38/42 21/21/23
f 38/38/42 30/30/33 21/21/23
f 3/2/3 30/30/33 39/39/43
s 2
f 40/105/44 31/67/34 1/4/4
s 1
f 40/40/45 41/41/46 31/31/35
f 41/41/46 32/32/36 31/31/35
f 41/41/46 42/42/47 32/32/36
f 42/42/47 33/33/37 32/32/36
f 42/42/47 43/43/48 33/33/37
f 43/43/48 34/34/38 33/33/37
f 43/43/48 44/44/49 34/34/38
f 44/44/49 35/35/39 34/34/38
f 35/35/39 44/44/49 36/36/40
f 44/44/49 45/45/50 36/36/40
f 36/36/40 45/45/50 37/37/41
f 45/45/50 46/46/51 37/37/41
f 37/37/41 46/46/51 38/38/42
f 46/46/51 47/47/52 38/38/42
f 38/38/42 47/47/52 30/30/33
f 47/47/52 39/39/43 30/30/33
f 39/39/43 48/48/53 3/2/3
s 2
f 1/4/4 49/108/54 40/105/44
s 1
f 40/40/45 49/107/55 41/41/46
f 49/107/55 50/50/56 41/41/46
f 41/41/46 50/50/56 42/42/47
f 50/50/56 51/51/57 42/42/47
f 42/42/47 51/51/57 43/43/48
f 51/51/57 52/52/58 43/43/48
f 43/43/48 52/52/58 44/44/49
f 52/52/58 53/53/59 44/44/49
f 53/53/59 54/54/60 44/44/49
f 54/54/60 45/45/50 44/44/49
f 54/54/60 55/55/61 45/45/50
f 55/55/61 46/46/51 45/45/50
f 55/55/61 56/56/62 46/46/51
f 56/56/62 47/47/52 46/46/51
f 56/56/62 48/48/53 47/47/52
f 48/48/53 39/39/43 47/47/52
f 48/48/53 57/57/63 3/2/3
s 2
f 1/4/4 58/109/64 49/108/54
s 1
f 49/107/55 58/106/65 50/50/56
f 58/106/65 59/59/66 50/50/56
f 50/50/56 59/59/66 51/51/57
f 59/59/66 60/60/67 51/51/57
f 51/51/57 60/60/67 52/52/58
f 60/60/67 61/61/68 52/52/58
f 52/52/58 61/61/68 53/53/59
f 61/61/68 62/62/69 53/53/59
f 62/62/69 63/63/70 53/53/59
f 63/63/70 54/54/60 53/53/59
f 63/63/70 64/64/71 54/54/60
f 64/64/71 55/55/61 54/54/60
f 64/64/71 65/65/72 55/55/61
f 65/65/72 56/56/62 55/55/61
f 65/65/72 57/57/63 56/56/62
f 57/57/63 48/48/53 56/56/62
f 57/57/63 66/66/73 3/2/3
s 2
f 1/4/4 67/110/74 58/109/64
s 1
f 58/106/65 67/104/75 59/59/66
f 67/104/75 68/68/76 59/59/66
f 59/59/66 68/68/76 60/60/67
f 68/68/76 69/69/77 60/60/67
f 60/60/67 69/69/77 61/61/68
f 69/69/77 70/70/78 61/61/68
f 61/61/68 70/70/78 62/62/69
f 70/70/78 71/71/79 62/62/69
f 71/71/79 72/72/80 62/62/69
f 72/72/80 63/63/70 62/62/69
f 72/72/80 73/73/81 63/63/70
f 73/73/81 64/64/71 63/63/70
f 73/73/81 74/74/82 64/64/71
f 74/74/82 65/65/72 64/64/71
f 74/74/82 66/66/73 65/65/72
f 66/66/73 57/57/63 65/65/72
f 66/66/73 75/84/83 3/2/3
s 2
f 1/4/4 76/112/84 67/110/74
s 1
f 67/104/75 76/76/85 68/68/76
f 76/76/85 77/77/86 68/68/76
f 68/68/76 77/77/86 69/69/77
f 77/77/86 78/78/87 69/69/77
f 69/69/77 78/78/87 70/70/78
f 78/78/87 79/79/88 70/70/78
f 70/70/78 79/79/88 71/71/79
f 79/79/88 80/80/89 71/71/79
f 80/80/89 81/81/90 71/71/79
f 81/81/90 72/72/80 71/71/79
f 81/81/90 82/82/91 72/72/80
f 82/82/91 73/73/81 72/72/80
f 82/82/91 83/83/92 73/73/81
f 83/83/92 74/74/82 73/73/81
f 83/83/92 75/84/83 74/74/82
f 75/84/83 66/66/73 74/74/82
s 7
f 2/103/93 4/96/94 1/93/95
f 76/92/96 1/93/95 77/91/97
f 1/93/95 4/96/94 77/91/97
f 79/89/98 78/90/99 80/88/100
f 80/88/100 78/90/99 81/87/101
f 81/87/101 78/90/99 82/86/102
f 78/90/99 77/91/97 82/86/102
f 82/86/102 77/91/97 83/85/103
f 83/85/103 77/91/97 75/75/104
f 77/91/97 4/96/94 75/75/104
f 75/75/104 4/96/94 3/94/105
f 3/94/105 4/96/94 5/102/106
f 5/102/106 4/96/94 6/101/107
f 6/101/107 4/96/94 7/100/108
f 4/96/94 11/95/109 7/100/108
f 7/100/108 11/95/109 8/99/110
f 8/99/110 11/95/109 9/98/111
f 9/98/111 11/95/109 10/97/112
