# This file uses centimeters as units for non-parametric coordinates.

v -3.159435 -1.747476 1.280267
v 2.106726 -2.015920 3.524557
v -3.159431 1.747474 1.280267
v 2.106733 2.015919 3.524557
v -3.159431 1.747474 -1.280267
v 2.106733 2.015919 -3.524557
v -3.159435 -1.747476 -1.280267
v 2.106726 -2.015920 -3.524557
v 3.159435 2.015917 -0.052567
v -2.973682 1.747471 -0.019095
v -2.973682 -1.747476 -0.019095
v 3.159435 -2.015920 -0.052567
v 2.837671 2.015916 1.906394
v -3.007225 1.747476 0.618411
v -3.007221 -1.747476 0.618411
v 2.837671 -2.015920 1.906394
v 2.837671 2.015916 -2.060424
v -3.007225 1.747476 -0.674361
v -3.007221 -1.747476 -0.674361
v 2.837671 -2.015920 -2.060424
vt 0.009766 0.452292
vt 0.126455 0.466196
vt 0.126455 0.731161
vt 0.009766 0.731162
vt 0.256920 0.466196
vt 0.256920 0.731161
vt 0.390556 0.466195
vt 0.390557 0.731161
vt 0.498101 0.466195
vt 0.619230 0.024875
vt 0.458727 0.742910
vt 0.503358 0.742910
vt 0.503358 0.972593
vt 0.458727 0.972593
vt 0.416773 0.742911
vt 0.416773 0.972593
vt 0.373654 0.742911
vt 0.373654 0.972593
vt 0.332597 0.742911
vt 0.332597 0.972593
vt 0.814375 0.451163
vt 0.437761 0.451163
vt 0.435264 0.334500
vt 0.822217 0.407226
vt 0.466253 0.207769
vt 0.836601 0.367815
vt 0.537375 0.094631
vt 0.855494 0.329055
vt 0.874303 0.713519
vt 0.053703 0.067835
vt 0.126428 0.454788
vt 0.093114 0.053452
vt 0.253159 0.423800
vt 0.131874 0.034559
vt 0.366298 0.352677
vt 0.164599 0.009766
vt 0.436053 0.270823
vt 0.874303 0.483837
vt 0.009766 0.075677
vt 0.879559 0.725268
vt 0.880287 0.296330
vt 0.498101 0.731161
vt 0.009766 0.466196
vt 0.879560 0.990234
vn -0.392054 0.000000 0.919942
vn -0.392053 0.000001 0.919942
vn -0.392054 0.000001 0.919942
vn -0.392053 0.000001 0.919942
vn -0.046374 0.998867 -0.010661
vn -0.041853 0.998950 -0.018624
vn -0.044921 0.998953 -0.008700
vn -0.042869 0.999004 -0.012373
vn -0.392053 0.000000 -0.919942
vn -0.392054 0.000001 -0.919942
vn -0.392054 0.000001 -0.919942
vn -0.392054 0.000001 -0.919942
vn -0.042869 -0.999004 -0.012372
vn -0.041854 -0.998950 -0.018623
vn -0.044922 -0.998953 -0.008697
vn -0.046372 -0.998867 -0.010665
vn 0.911336 -0.000002 0.411662
vn 0.959321 -0.000001 0.282317
vn 0.911338 -0.000000 0.411660
vn 0.959321 0.000000 0.282316
vn -0.989936 -0.000001 -0.141519
vn -0.974560 -0.000001 -0.224128
vn -0.989936 -0.000000 -0.141516
vn -0.974562 0.000001 -0.224119
vn -0.043728 0.999044 0.000037
vn -0.042586 0.999013 0.012630
vn -0.044620 0.999004 0.000024
vn -0.044741 0.998960 0.008767
vn -0.989327 -0.000000 0.145713
vn -1.000000 -0.000001 0.000000
vn -0.989327 -0.000001 0.145711
vn -1.000000 -0.000000 0.000000
vn -0.044742 -0.998960 0.008765
vn -0.042586 -0.999013 0.012630
vn -0.044621 -0.999004 0.000024
vn -0.043727 -0.999044 0.000037
vn 1.000000 0.000000 -0.000000
vn 1.000000 0.000000 0.000000
vn 0.956980 0.000000 -0.290155
vn 0.956979 -0.000001 -0.290156
vn -0.041146 0.998948 0.020259
vn -0.045996 0.998875 0.011551
vn -0.969864 0.000001 0.243647
vn -0.969867 -0.000001 0.243636
vn -0.045994 -0.998875 0.011554
vn -0.041147 -0.998948 0.020258
vn 0.894702 -0.000000 -0.446663
vn 0.894701 -0.000002 -0.446665
s 1
f 1/12/1 2/40/2 3/13/3
f 3/13/3 2/40/2 4/44/4
s 2
f 3/21/5 4/22/6 14/24/7
f 14/24/7 4/22/6 13/23/8
s 3
f 5/29/9 6/42/10 7/38/11
f 7/38/11 6/42/10 8/9/12
s 4
f 16/31/13 2/1/14 15/30/15
f 15/30/15 2/1/14 1/39/16
s 5
f 2/43/17 16/2/18 4/4/19
f 4/4/19 16/2/18 13/3/20
s 6
f 15/11/21 1/12/22 14/14/23
f 14/14/23 1/12/22 3/13/24
s 2
f 9/25/25 17/27/26 10/26/27
f 10/26/27 17/27/26 18/28/28
s 6
f 19/17/29 11/15/30 18/18/31
f 18/18/31 11/15/30 10/16/32
s 4
f 19/34/33 20/35/34 11/32/35
f 11/32/35 20/35/34 12/33/36
s 5
f 9/6/37 12/5/38 17/8/39
f 17/8/39 12/5/38 20/7/40
s 2
f 14/24/7 13/23/8 10/26/27
f 10/26/27 13/23/8 9/25/25
s 6
f 11/15/30 15/11/21 10/16/32
f 10/16/32 15/11/21 14/14/23
s 4
f 12/33/36 16/31/13 11/32/35
f 11/32/35 16/31/13 15/30/15
s 5
f 13/3/20 16/2/18 9/6/37
f 9/6/37 16/2/18 12/5/38
s 2
f 17/27/26 6/10/41 18/28/28
f 18/28/28 6/10/41 5/41/42
s 6
f 7/19/43 19/17/29 5/20/44
f 5/20/44 19/17/29 18/18/31
s 4
f 7/36/45 8/37/46 19/34/33
f 19/34/33 8/37/46 20/35/34
s 5
f 17/8/39 20/7/40 6/42/47
f 6/42/47 20/7/40 8/9/48
