# This file uses centimeters as units for non-parametric coordinates.

v -4.918103 0.303638 4.195494
v 4.679005 -0.285153 4.393000
v -5.712410 -0.094164 -3.689565
v 5.714922 -0.600614 -3.241075
v 0.028938 -0.261977 -4.174874
v -0.110104 -0.237229 3.728393
v -3.098399 0.699339 -4.317100
v -2.900970 0.785395 3.862307
v 3.505264 0.214511 -3.964146
v 3.063150 0.223196 4.046912
v 2.008200 0.488060 -4.265994
v 1.696909 0.404563 3.907116
v 4.775978 -0.131379 -3.594471
v 4.166479 -0.085173 4.238853
v -1.552307 0.689371 -4.404524
v -1.453691 0.765658 3.784317
v -4.598425 0.403662 -4.060086
v -4.060962 0.606229 3.972044
v 4.392990 0.818814 4.248444
v 5.088240 0.446138 4.404524
v 6.135731 0.130678 -3.229551
v 4.963931 0.774671 -3.587895
v -1.432695 1.681319 3.784317
v 0.025972 1.406511 3.844516
v 0.166571 1.393072 -4.346922
v -1.532410 1.602680 -4.394891
v -4.198566 1.512590 3.968757
v -2.913820 1.686215 3.862574
v -3.095605 1.610106 -4.317042
v -4.714070 1.314165 -4.062788
v 1.753107 1.320235 3.907116
v 3.172001 1.114246 4.049706
v 3.580973 1.127551 -3.963984
v 2.067877 1.406253 -4.246049
v -5.258070 0.963054 4.191127
v -6.061253 0.565251 -3.693932
v -0.253709 0.549797 3.834393
v -0.154630 0.511884 -4.370317
v -0.119119 1.428318 -4.335233
v -0.219305 1.466626 3.834393
v 0.260746 0.491437 3.854481
v 0.427206 0.503922 -4.345111
v 0.469217 1.420384 -4.307439
v 0.300899 1.407916 3.854481
v 0.088652 -0.239188 3.733733
v 0.242389 -0.247016 -4.152976
v 0.328776 1.407709 -4.325026
v 0.173318 1.408194 3.849857
v 0.265244 0.504168 -4.325026
v 0.079393 0.507718 -4.346922
v -0.059571 0.527883 3.844516
v 0.111510 0.508418 3.849857
vt 0.501491 0.985311
vt 0.485805 0.605702
vt 0.530628 0.985884
vt 0.514941 0.606275
vt 0.656110 0.843122
vt 0.654879 0.450128
vt 0.695245 0.848393
vt 0.693360 0.440409
vt 0.611918 0.520697
vt 0.648248 0.514693
vt 0.611528 0.912868
vt 0.648869 0.922422
vt 0.001951 0.053504
vt 0.381560 0.001992
vt 0.009712 0.087693
vt 0.399379 0.059617
vt 0.019595 0.147737
vt 0.418080 0.127625
vt 0.026685 0.217513
vt 0.432106 0.202033
vt 0.029303 0.288926
vt 0.435158 0.280649
vt 0.029532 0.295200
vt 0.436033 0.287556
vt 0.029798 0.302446
vt 0.437122 0.295532
vt 0.436540 0.309581
vt 0.030301 0.314508
vt 0.032791 0.374178
vt 0.439507 0.379082
vt 0.435636 0.455953
vt 0.028900 0.447014
vt 0.422993 0.535543
vt 0.023620 0.510193
vt 0.404651 0.601792
vt 0.012563 0.562295
vt 0.872858 0.001992
vt 0.924369 0.381600
vt 0.847372 0.009657
vt 0.877680 0.399173
vt 0.792508 0.019201
vt 0.814493 0.417556
vt 0.724571 0.026153
vt 0.740050 0.432565
vt 0.653157 0.028770
vt 0.661435 0.436499
vt 0.972692 0.458365
vt 0.977619 0.866349
vt 0.913022 0.460855
vt 0.908118 0.868050
vt 0.831238 0.863702
vt 0.841055 0.456977
vt 0.756648 0.850922
vt 0.783374 0.451520
vt 0.701255 0.832498
vt 0.740752 0.440409
vt 0.597874 0.514693
vt 0.605518 0.906864
vt 0.587991 0.514959
vt 0.594905 0.907953
vt 0.555791 0.017715
vt 0.584928 0.001992
vt 0.565736 0.043200
vt 0.603459 0.036182
vt 0.581069 0.098064
vt 0.618150 0.096225
vt 0.590088 0.166001
vt 0.628393 0.166001
vt 0.594408 0.237415
vt 0.632753 0.237415
vt 0.595252 0.244836
vt 0.632766 0.243689
vt 0.558077 0.245972
vt 0.596220 0.253343
vt 0.558174 0.255856
vt 0.632683 0.250935
vt 0.597310 0.262996
vt 0.635672 0.262996
vt 0.608044 0.322666
vt 0.646348 0.322666
vt 0.609025 0.394633
vt 0.646591 0.395502
vt 0.637958 0.458681
vt 0.600116 0.452314
vt 0.610632 0.510783
vt 0.585069 0.494936
vt 0.549672 0.017715
vt 0.526339 0.064404
vt 0.520536 0.001992
vt 0.488513 0.059617
vt 0.509140 0.127591
vt 0.470966 0.127625
vt 0.495537 0.202033
vt 0.457107 0.202033
vt 0.494749 0.280649
vt 0.456405 0.280649
vt 0.457035 0.287556
vt 0.494736 0.288703
vt 0.532089 0.289839
vt 0.457763 0.295532
vt 0.494560 0.297944
vt 0.532833 0.300453
vt 0.494353 0.309581
vt 0.456010 0.309581
vt 0.485527 0.379082
vt 0.447340 0.379082
vt 0.485031 0.455962
vt 0.446971 0.455953
vt 0.461687 0.535543
vt 0.499734 0.530551
vt 0.498926 0.601792
vt 0.524489 0.585945
vt 0.556418 0.605702
vt 0.581981 0.605919
vt 0.536637 0.997791
vt 0.562200 0.998008
vn 0.467434 0.883596 0.027625
vn 0.474196 0.879924 0.029539
vn 0.337967 0.940970 0.018794
vn 0.343206 0.939033 0.020656
vn 0.185551 0.982632 -0.002332
vn 0.143454 0.989656 -0.001115
vn 0.126675 0.991908 -0.008483
vn 0.047922 0.998851 -0.000816
vn -0.306533 0.951840 -0.006266
vn -0.067927 0.997621 -0.011717
vn -0.318350 0.947973 0.000931
vn -0.086630 0.996213 -0.007466
vn 0.188194 0.982077 0.010375
vn 0.204101 0.978828 0.015433
vn 0.104096 0.994502 0.011412
vn 0.091414 0.995766 0.009656
vn 0.049045 0.998740 0.010596
vn 0.000276 0.999999 0.001409
vn 0.078834 0.996865 -0.006735
vn 0.060600 0.998109 -0.010335
vn -0.460082 0.887874 0.002071
vn -0.482216 0.876007 0.008919
vn -0.360755 -0.932602 -0.010416
vn -0.307288 -0.951509 -0.014317
vn -0.436466 -0.899273 -0.028385
vn -0.327548 -0.944639 -0.019207
vn -0.177142 -0.984182 0.002409
vn -0.085724 -0.996292 0.007337
vn -0.130429 -0.991407 0.010075
vn -0.063551 -0.997928 0.010062
vn 0.245553 -0.969293 0.013213
vn 0.278762 -0.960358 0.002112
vn 0.068354 -0.997589 0.012028
vn 0.088459 -0.996050 0.007736
vn -0.196063 -0.980537 -0.010348
vn -0.098396 -0.995097 -0.010018
vn -0.207708 -0.978079 -0.014791
vn -0.090368 -0.995865 -0.009334
vn -0.009875 -0.999951 0.000800
vn -0.008404 -0.999964 0.000866
vn 0.068359 -0.997652 0.004296
vn 0.069478 -0.997574 0.004346
vn 0.336023 -0.941755 0.013662
vn 0.403320 -0.915053 -0.003285
vn -0.242492 0.120531 0.962637
vn -0.210512 0.060979 0.975688
vn -0.183470 0.046466 0.981927
vn -0.174227 0.029712 0.984257
vn 0.863474 -0.485367 0.137227
vn 0.857901 -0.494914 0.138077
vn 0.863064 -0.486078 0.137291
vn 0.857492 -0.495606 0.138138
vn 0.282827 -0.147814 -0.947713
vn 0.269673 -0.063203 -0.960876
vn 0.275577 -0.098324 -0.956237
vn 0.265121 -0.042514 -0.963277
vn -0.041216 0.001337 0.999149
vn -0.045071 -0.011852 0.998914
vn -0.039856 0.002484 0.999202
vn -0.049898 -0.066440 0.996542
vn 0.104605 -0.111257 -0.988271
vn 0.040626 0.007097 -0.999149
vn 0.040733 0.016454 -0.999035
vn 0.023435 0.029068 -0.999303
vn 0.142577 0.035518 0.989146
vn 0.068617 0.003273 0.997638
vn 0.131607 0.019835 0.991103
vn 0.065999 0.000645 0.997819
vn -0.208141 -0.040988 -0.977240
vn -0.196213 -0.023140 -0.980288
vn -0.109043 -0.001769 -0.994036
vn -0.100631 0.000371 -0.994924
vn -0.129779 0.015359 0.991424
vn -0.125610 0.011620 0.992012
vn -0.068411 0.004712 0.997646
vn -0.066829 0.003983 0.997757
vn 0.229345 -0.023520 -0.973061
vn 0.119882 0.009685 -0.992741
vn 0.220752 -0.013522 -0.975236
vn 0.113914 0.017691 -0.993333
vn -0.036079 0.001643 0.999348
vn -0.036599 -0.008406 0.999295
vn 0.019550 0.014909 -0.999698
vn 0.044678 0.038986 -0.998241
vn 0.008387 -0.000076 0.999965
vn 0.012409 0.000052 0.999923
vn -0.009889 0.015556 -0.999830
vn -0.008943 0.008652 -0.999923
vn 0.212095 0.115774 0.970367
vn 0.198899 0.066980 0.977728
vn -0.255036 -0.141253 -0.956559
vn -0.251328 -0.091886 -0.963531
vn -0.883542 -0.454776 0.111948
vn -0.883249 -0.455331 0.112005
vn -0.878882 -0.463499 0.112849
vn -0.878588 -0.464042 0.112905
vn -0.984016 -0.177293 -0.016757
vn -0.983290 -0.181314 -0.016323
vn -0.973041 -0.230372 -0.010989
vn -0.972336 -0.233342 -0.010664
vn -0.053360 -0.998514 -0.011067
vn -0.009947 -0.999949 -0.001724
vn 0.112850 0.012311 -0.993536
vn 0.005230 -0.106960 -0.994250
vn -0.005581 0.999984 0.000572
vn -0.089113 0.996018 -0.002550
vn -0.035831 0.002915 0.999354
vn -0.038005 -0.068540 0.996924
vn 0.972472 -0.232230 0.019187
vn 0.972005 -0.234163 0.019366
vn 0.972437 -0.232376 0.019201
vn 0.971981 -0.234261 0.019376
vn 0.094151 -0.224003 -0.970030
vn 0.111041 -0.223722 -0.968307
vn -0.035912 -0.150920 0.987893
vn -0.029741 -0.152531 0.987851
s 1
f 20/13/1 21/14/2 19/15/3
f 19/15/3 21/14/2 22/16/4
f 40/28/5 24/25/6 39/27/7
f 39/27/7 24/25/6 25/26/8
f 27/34/9 28/32/10 30/33/11
f 30/33/11 28/32/10 29/31/12
f 32/17/13 33/18/14 31/19/15
f 31/19/15 33/18/14 34/20/16
f 31/19/15 34/20/16 44/21/17
f 44/21/17 34/20/16 43/22/18
f 19/15/3 22/16/4 32/17/13
f 32/17/13 22/16/4 33/18/14
f 28/32/10 23/29/19 29/31/12
f 29/31/12 23/29/19 26/30/20
f 35/36/21 27/34/9 36/35/22
f 36/35/22 27/34/9 30/33/11
s 5
f 2/37/23 14/39/24 4/38/25
f 14/39/24 13/40/26 4/38/25
s 6
f 37/47/27 16/49/28 38/48/29
f 16/49/28 15/50/30 38/48/29
f 18/54/31 17/53/32 8/52/33
f 17/53/32 7/51/34 8/52/33
s 5
f 10/41/35 12/43/36 9/42/37
f 12/43/36 11/44/38 9/42/37
s 9
f 45/57/39 6/59/40 46/58/41
f 6/59/40 5/60/42 46/58/41
s 5
f 14/39/24 10/41/35 13/40/26
f 10/41/35 9/42/37 13/40/26
s 6
f 8/52/33 7/51/34 16/49/28
f 7/51/34 15/50/30 16/49/28
f 1/56/43 3/55/44 18/54/31
f 3/55/44 17/53/32 18/54/31
s 10
f 2/61/45 20/62/46 14/63/47
f 14/63/47 20/62/46 19/64/48
s 11
f 2/1/49 4/2/50 20/3/51
f 20/3/51 4/2/50 21/4/52
s 12
f 4/87/53 13/88/54 21/89/55
f 21/89/55 13/88/54 22/90/56
s 10
f 40/78/57 37/77/58 24/76/59
f 24/76/59 37/77/58 51/74/60
s 12
f 50/101/61 38/103/62 25/100/63
f 25/100/63 38/103/62 39/104/64
s 10
f 18/84/65 8/81/66 27/83/67
f 27/83/67 8/81/66 28/82/68
s 12
f 17/110/69 30/109/70 7/107/71
f 7/107/71 30/109/70 29/108/72
s 10
f 10/65/73 32/66/74 12/67/75
f 12/67/75 32/66/74 31/68/76
s 12
f 9/91/77 11/93/78 33/92/79
f 33/92/79 11/93/78 34/94/80
s 10
f 44/70/81 41/69/82 31/68/76
f 31/68/76 41/69/82 12/67/75
s 12
f 11/93/78 42/95/83 34/94/80
f 34/94/80 42/95/83 43/96/84
s 10
f 14/63/47 19/64/48 10/65/73
f 10/65/73 19/64/48 32/66/74
s 12
f 13/88/54 9/91/77 22/90/56
f 22/90/56 9/91/77 33/92/79
s 10
f 16/79/85 23/80/86 8/81/66
f 8/81/66 23/80/86 28/82/68
s 12
f 15/105/87 7/107/71 26/106/88
f 26/106/88 7/107/71 29/108/72
s 10
f 1/86/89 18/84/65 35/85/90
f 35/85/90 18/84/65 27/83/67
s 12
f 3/112/91 36/111/92 17/110/69
f 17/110/69 36/111/92 30/109/70
s 21
f 1/113/93 35/114/94 3/115/95
f 3/115/95 35/114/94 36/116/96
s 22
f 6/5/97 37/7/98 5/6/99
f 37/7/98 38/8/100 5/6/99
s 12
f 38/103/62 15/105/87 39/104/64
f 39/104/64 15/105/87 26/106/88
s 1
f 40/28/5 39/27/7 23/29/19
f 23/29/19 39/27/7 26/30/20
s 10
f 37/77/58 40/78/57 16/79/85
f 16/79/85 40/78/57 23/80/86
s 5
f 12/43/36 41/45/101 11/44/38
f 41/45/101 42/46/102 11/44/38
s 12
f 43/96/84 42/95/83 47/97/103
f 47/97/103 42/95/83 49/98/104
s 1
f 44/21/17 43/22/18 48/23/105
f 48/23/105 43/22/18 47/24/106
s 10
f 48/72/107 52/71/108 44/70/81
f 44/70/81 52/71/108 41/69/82
s 24
f 45/9/109 46/11/110 41/10/111
f 46/11/110 42/12/112 41/10/111
s 12
f 47/97/103 49/98/104 25/100/63
f 25/100/63 49/98/104 50/101/61
s 1
f 48/23/105 47/24/106 24/25/6
f 24/25/6 47/24/106 25/26/8
s 10
f 52/71/108 48/72/107 51/74/60
f 51/74/60 48/72/107 24/76/59
s 12
f 49/98/104 42/95/83 46/99/113
f 49/98/104 46/99/113 50/101/61
f 50/101/61 46/99/113 5/102/114
f 5/102/114 38/103/62 50/101/61
s 10
f 51/74/60 37/77/58 6/75/115
f 45/73/116 52/71/108 6/75/115
f 6/75/115 52/71/108 51/74/60
f 41/69/82 52/71/108 45/73/116
