# This file uses centimeters as units for non-parametric coordinates.

v 1.720440 -4.422483 1.492309
v 1.448254 -4.422483 0.958120
v 1.024326 -4.422483 0.534188
v 0.490135 -4.422483 0.262006
v -0.102016 -4.422483 0.168218
v -0.694168 -4.422483 0.262006
v -1.228359 -4.422483 0.534188
v -1.652290 -4.422483 0.958120
v -1.924473 -4.422483 1.492309
v 1.814228 -4.422483 2.084462
v 2.736530 -3.883264 1.162164
v 2.312592 -3.883264 0.330146
v 1.652302 -3.883264 -0.330146
v 0.820286 -3.883264 -0.754080
v -0.102016 -3.883264 -0.900157
v -1.024319 -3.883264 -0.754080
v -1.856335 -3.883264 -0.330145
v -2.516624 -3.883264 0.330146
v -2.940559 -3.883264 1.162165
v 2.882599 -3.883264 2.084462
v 3.474754 -3.024454 0.922297
v 2.940571 -3.024454 -0.126106
v 2.108551 -3.024454 -0.958122
v 1.060150 -3.024454 -1.492310
v -0.102016 -3.024454 -1.676377
v -1.264183 -3.024454 -1.492310
v -2.312584 -3.024454 -0.958121
v -3.144600 -3.024454 -0.126104
v -3.678791 -3.024454 0.922297
v 3.658821 -3.024454 2.084462
v 3.862862 -1.882470 0.796193
v 3.270714 -1.882470 -0.365970
v 2.348415 -1.882470 -1.288269
v 1.186253 -1.882470 -1.880420
v -0.102016 -1.882470 -2.084462
v -1.390285 -1.882470 -1.880420
v -2.552448 -1.882470 -1.288267
v -3.474743 -1.882470 -0.365970
v -4.066895 -1.882470 0.796193
v 4.066898 -1.882470 2.084462
v 3.715816 0.084614 0.843973
v 3.145622 0.084614 -0.275087
v 2.257530 0.084614 -1.163178
v 1.138474 0.084614 -1.733369
v -0.102016 0.084614 -1.929842
v -1.342506 0.084614 -1.733369
v -2.461575 0.084614 -1.163178
v -3.349655 0.084614 -0.275086
v -3.919849 0.084614 0.843973
v 3.912285 0.084614 2.084462
v 2.736530 1.856433 1.162164
v 2.312592 1.856433 0.330146
v 1.652302 1.856433 -0.330146
v 0.820286 1.856433 -0.754080
v -0.102016 1.856433 -0.900157
v -1.024319 1.856433 -0.754080
v -1.856335 1.856433 -0.330145
v -2.516624 1.856433 0.330146
v -2.940559 1.856433 1.162165
v 2.882599 1.856433 2.084462
v 0.893623 3.472560 1.760960
v 0.744923 3.472560 1.469122
v 0.513325 3.472560 1.237520
v 0.221485 3.472560 1.088822
v -0.102016 3.472560 1.037585
v -0.425518 3.472560 1.088822
v -0.717358 3.472560 1.237520
v -0.948956 3.472560 1.469123
v -1.097652 3.472560 1.760960
v 0.944862 3.472560 2.084462
v 0.525959 4.444704 1.880419
v 0.432171 4.444704 1.696352
v 0.286095 4.444704 1.550272
v 0.102024 4.444704 1.456484
v -0.102016 4.444704 1.424169
v -0.306057 4.444704 1.456484
v -0.490124 4.444704 1.550272
v -0.636204 4.444704 1.696352
v -0.729992 4.444704 1.880419
v 0.558273 4.444704 2.084462
v -0.102016 -4.701607 2.084462
v -0.102016 4.701607 2.084462
vt 0.635408 0.093504
vt 0.609497 0.076489
vt 0.224312 0.009766
vt 0.665753 0.104160
vt 0.698476 0.109020
vt 0.731960 0.108387
vt 0.764710 0.102258
vt 0.795072 0.090318
vt 0.820918 0.071978
vt 0.839260 0.046527
vt 0.322928 0.024130
vt 0.601548 0.148261
vt 0.559834 0.129595
vt 0.646105 0.159315
vt 0.692105 0.164172
vt 0.738610 0.163484
vt 0.784816 0.157325
vt 0.829835 0.145195
vt 0.872423 0.125834
vt 0.070714 0.051881
vt 0.523502 0.100782
vt 0.579238 0.204087
vt 0.525668 0.188819
vt 0.633400 0.212912
vt 0.687876 0.216653
vt 0.742502 0.215938
vt 0.797169 0.210926
vt 0.851821 0.201346
vt 0.906489 0.186315
vt 0.030767 0.096078
vt 0.473252 0.164341
vt 0.566454 0.264614
vt 0.505629 0.256427
vt 0.626216 0.269470
vt 0.685480 0.271393
vt 0.744602 0.270662
vt 0.803914 0.267482
vt 0.863881 0.262048
vt 0.925364 0.254641
vt 0.009766 0.154848
vt 0.442558 0.244551
vt 0.567755 0.365547
vt 0.507230 0.371127
vt 0.627181 0.362543
vt 0.686018 0.360900
vt 0.744602 0.360162
vt 0.803227 0.360489
vt 0.862215 0.362703
vt 0.921978 0.368527
vt 0.017723 0.256080
vt 0.444632 0.381695
vt 0.596989 0.468954
vt 0.551541 0.484271
vt 0.644084 0.459968
vt 0.691881 0.455530
vt 0.739791 0.454823
vt 0.787328 0.457861
vt 0.833891 0.465476
vt 0.878500 0.479410
vt 0.070714 0.347264
vt 0.509490 0.508905
vt 0.668528 0.591692
vt 0.651894 0.600521
vt 0.687327 0.585538
vt 0.707450 0.582076
vt 0.728079 0.581318
vt 0.748403 0.583291
vt 0.767594 0.588041
vt 0.784779 0.595622
vt 0.170437 0.430435
vt 0.638310 0.611973
vt 0.695179 0.640135
vt 0.686817 0.646551
vt 0.704666 0.635684
vt 0.714864 0.633293
vt 0.725320 0.633005
vt 0.735572 0.634820
vt 0.745178 0.638689
vt 0.753760 0.644508
vt 0.190331 0.480465
vt 0.679916 0.654780
vt 0.224312 0.493686
vt 0.712698 0.009766
vt 0.721173 0.670079
vt 0.258293 0.480465
vt 0.761061 0.652116
vt 0.590897 0.052486
vt 0.125695 0.024130
vt 0.278188 0.430435
vt 0.798993 0.606063
vt 0.377910 0.347264
vt 0.919317 0.502466
vt 0.430901 0.256080
vt 0.983031 0.381071
vt 0.438858 0.154848
vt 0.990234 0.245910
vt 0.417857 0.096077
vt 0.961344 0.163670
vt 0.377910 0.051880
vt 0.910445 0.096731
vn 0.234355 -0.957868 -0.166032
vn 0.274191 -0.957868 -0.085486
vn 0.016099 -0.994691 -0.101643
vn 0.171578 -0.957868 -0.230326
vn 0.092006 -0.957868 -0.272073
vn 0.003428 -0.957868 -0.287188
vn -0.085486 -0.957868 -0.274191
vn -0.166032 -0.957868 -0.234355
vn -0.230326 -0.957868 -0.171578
vn -0.265723 -0.954495 -0.135392
vn 0.278448 -0.959438 -0.044102
vn 0.595623 -0.781132 -0.187259
vn 0.508603 -0.781133 -0.362151
vn 0.371800 -0.781133 -0.501594
vn 0.198602 -0.781133 -0.591937
vn 0.005963 -0.781132 -0.624337
vn -0.187259 -0.781132 -0.595622
vn -0.362152 -0.781132 -0.508604
vn -0.501595 -0.781132 -0.371800
vn -0.560753 -0.777124 -0.285719
vn 0.620998 -0.777617 -0.098351
vn 0.828208 -0.494334 -0.264018
vn 0.706085 -0.494336 -0.507027
vn 0.514845 -0.494336 -0.700404
vn 0.273210 -0.494336 -0.825220
vn 0.004832 -0.494337 -0.869257
vn -0.264020 -0.494336 -0.828206
vn -0.507028 -0.494336 -0.706084
vn -0.700404 -0.494336 -0.514846
vn -0.776056 -0.491303 -0.395422
vn 0.862088 -0.488018 -0.136539
vn 0.948460 -0.076881 -0.307431
vn 0.807036 -0.076879 -0.585477
vn 0.586614 -0.076879 -0.806209
vn 0.308770 -0.076880 -0.948024
vn 0.000703 -0.076880 -0.997040
vn -0.307434 -0.076880 -0.948459
vn -0.585477 -0.076881 -0.807035
vn -0.806210 -0.076880 -0.586613
vn -0.888222 -0.078996 -0.452573
vn 0.985064 -0.072852 -0.156015
vn 0.908989 0.290819 -0.298603
vn 0.772224 0.290820 -0.564883
vn 0.559872 0.290820 -0.775865
vn 0.292714 0.290820 -0.910902
vn -0.003096 0.290821 -0.956773
vn -0.298603 0.290820 -0.908988
vn -0.564883 0.290820 -0.772225
vn -0.775867 0.290820 -0.559870
vn -0.854249 0.284258 -0.435265
vn 0.945042 0.290676 -0.149676
vn 0.725472 0.644520 -0.241419
vn 0.615361 0.644521 -0.453789
vn 0.445016 0.644521 -0.621734
vn 0.231108 0.644521 -0.728822
vn -0.005421 0.644521 -0.764568
vn -0.241420 0.644521 -0.725472
vn -0.453788 0.644521 -0.615361
vn -0.621735 0.644521 -0.445015
vn -0.683303 0.641779 -0.348161
vn 0.760486 0.638087 -0.120443
vn 0.683319 0.690612 -0.236921
vn 0.576666 0.690610 -0.436479
vn 0.413562 0.690611 -0.593316
vn 0.209974 0.690611 -0.692075
vn -0.014164 0.690610 -0.723088
vn -0.236917 0.690610 -0.683322
vn -0.436480 0.690611 -0.576664
vn -0.593319 0.690611 -0.413557
vn -0.657048 0.675433 -0.334780
vn 0.710839 0.694285 -0.112586
vn 0.745346 0.618912 -0.247806
vn 0.632288 0.618915 -0.466001
vn 0.457340 0.618913 -0.638582
vn 0.237618 0.618913 -0.748655
vn -0.005356 0.618914 -0.785440
vn -0.247807 0.618912 -0.745345
vn -0.466006 0.618915 -0.632284
vn -0.638582 0.618913 -0.457340
vn -0.697244 0.622604 -0.355268
vn 0.785463 0.606278 -0.124398
vn 0.041669 0.963872 -0.263085
vn -0.156436 0.000000 0.987688
vn -0.156435 -0.000000 0.987688
vn -0.000000 0.000000 1.000000
vn 0.000000 0.000000 1.000000
vn 0.000000 0.000000 1.000000
vn 0.000000 0.000000 1.000000
vn -0.000000 0.000000 1.000000
vn -0.000000 0.000000 1.000000
vn 0.000000 0.000000 1.000000
vn 0.000000 0.000000 1.000000
vn -0.309019 0.000000 0.951056
vn -0.309016 0.000000 0.951057
vn -0.309017 0.000000 0.951057
vn -0.309018 -0.000000 0.951056
vn -0.309018 -0.000001 0.951056
vn -0.309018 -0.000001 0.951056
vn -0.309013 0.000004 0.951058
vn -0.309020 -0.000000 0.951056
s 1
f 2/1/1 1/2/2 81/83/3
f 3/4/4 2/1/1 81/83/3
f 4/5/5 3/4/4 81/83/3
f 5/6/6 4/5/5 81/83/3
f 6/7/7 5/6/6 81/83/3
f 7/8/8 6/7/7 81/83/3
f 8/9/9 7/8/8 81/83/3
f 9/10/10 8/9/9 81/83/3
f 1/2/2 10/87/11 81/83/3
f 1/2/2 2/1/1 11/13/12
f 11/13/12 2/1/1 12/12/13
f 2/1/1 3/4/4 12/12/13
f 12/12/13 3/4/4 13/14/14
f 3/4/4 4/5/5 13/14/14
f 13/14/14 4/5/5 14/15/15
f 4/5/5 5/6/6 14/15/15
f 14/15/15 5/6/6 15/16/16
f 5/6/6 6/7/7 15/16/16
f 15/16/16 6/7/7 16/17/17
f 6/7/7 7/8/8 16/17/17
f 16/17/17 7/8/8 17/18/18
f 7/8/8 8/9/9 17/18/18
f 17/18/18 8/9/9 18/19/19
f 8/9/9 9/10/10 18/19/19
f 18/19/19 9/10/10 19/100/20
f 10/87/11 1/2/2 20/21/21
f 20/21/21 1/2/2 11/13/12
f 11/13/12 12/12/13 21/23/22
f 21/23/22 12/12/13 22/22/23
f 12/12/13 13/14/14 22/22/23
f 22/22/23 13/14/14 23/24/24
f 13/14/14 14/15/15 23/24/24
f 23/24/24 14/15/15 24/25/25
f 14/15/15 15/16/16 24/25/25
f 24/25/25 15/16/16 25/26/26
f 15/16/16 16/17/17 25/26/26
f 25/26/26 16/17/17 26/27/27
f 16/17/17 17/18/18 26/27/27
f 26/27/27 17/18/18 27/28/28
f 17/18/18 18/19/19 27/28/28
f 27/28/28 18/19/19 28/29/29
f 18/19/19 19/100/20 28/29/29
f 28/29/29 19/100/20 29/98/30
f 20/21/21 11/13/12 30/31/31
f 30/31/31 11/13/12 21/23/22
f 21/23/22 22/22/23 31/33/32
f 31/33/32 22/22/23 32/32/33
f 22/22/23 23/24/24 32/32/33
f 32/32/33 23/24/24 33/34/34
f 23/24/24 24/25/25 33/34/34
f 33/34/34 24/25/25 34/35/35
f 24/25/25 25/26/26 34/35/35
f 34/35/35 25/26/26 35/36/36
f 25/26/26 26/27/27 35/36/36
f 35/36/36 26/27/27 36/37/37
f 26/27/27 27/28/28 36/37/37
f 36/37/37 27/28/28 37/38/38
f 27/28/28 28/29/29 37/38/38
f 37/38/38 28/29/29 38/39/39
f 28/29/29 29/98/30 38/39/39
f 38/39/39 29/98/30 39/96/40
f 30/31/31 21/23/22 40/41/41
f 40/41/41 21/23/22 31/33/32
f 31/33/32 32/32/33 41/43/42
f 41/43/42 32/32/33 42/42/43
f 32/32/33 33/34/34 42/42/43
f 42/42/43 33/34/34 43/44/44
f 33/34/34 34/35/35 43/44/44
f 43/44/44 34/35/35 44/45/45
f 34/35/35 35/36/36 44/45/45
f 44/45/45 35/36/36 45/46/46
f 35/36/36 36/37/37 45/46/46
f 45/46/46 36/37/37 46/47/47
f 36/37/37 37/38/38 46/47/47
f 46/47/47 37/38/38 47/48/48
f 37/38/38 38/39/39 47/48/48
f 47/48/48 38/39/39 48/49/49
f 38/39/39 39/96/40 48/49/49
f 48/49/49 39/96/40 49/94/50
f 40/41/41 31/33/32 50/51/51
f 50/51/51 31/33/32 41/43/42
f 41/43/42 42/42/43 51/53/52
f 51/53/52 42/42/43 52/52/53
f 42/42/43 43/44/44 52/52/53
f 52/52/53 43/44/44 53/54/54
f 43/44/44 44/45/45 53/54/54
f 53/54/54 44/45/45 54/55/55
f 44/45/45 45/46/46 54/55/55
f 54/55/55 45/46/46 55/56/56
f 45/46/46 46/47/47 55/56/56
f 55/56/56 46/47/47 56/57/57
f 46/47/47 47/48/48 56/57/57
f 56/57/57 47/48/48 57/58/58
f 47/48/48 48/49/49 57/58/58
f 57/58/58 48/49/49 58/59/59
f 48/49/49 49/94/50 58/59/59
f 58/59/59 49/94/50 59/92/60
f 50/51/51 41/43/42 60/61/61
f 60/61/61 41/43/42 51/53/52
f 51/53/52 52/52/53 61/63/62
f 61/63/62 52/52/53 62/62/63
f 52/52/53 53/54/54 62/62/63
f 62/62/63 53/54/54 63/64/64
f 53/54/54 54/55/55 63/64/64
f 63/64/64 54/55/55 64/65/65
f 54/55/55 55/56/56 64/65/65
f 64/65/65 55/56/56 65/66/66
f 55/56/56 56/57/57 65/66/66
f 65/66/66 56/57/57 66/67/67
f 56/57/57 57/58/58 66/67/67
f 66/67/67 57/58/58 67/68/68
f 57/58/58 58/59/59 67/68/68
f 67/68/68 58/59/59 68/69/69
f 58/59/59 59/92/60 68/69/69
f 68/69/69 59/92/60 69/90/70
f 60/61/61 51/53/52 70/71/71
f 70/71/71 51/53/52 61/63/62
f 61/63/62 62/62/63 71/73/72
f 71/73/72 62/62/63 72/72/73
f 62/62/63 63/64/64 72/72/73
f 72/72/73 63/64/64 73/74/74
f 63/64/64 64/65/65 73/74/74
f 73/74/74 64/65/65 74/75/75
f 64/65/65 65/66/66 74/75/75
f 74/75/75 65/66/66 75/76/76
f 65/66/66 66/67/67 75/76/76
f 75/76/76 66/67/67 76/77/77
f 66/67/67 67/68/68 76/77/77
f 76/77/77 67/68/68 77/78/78
f 67/68/68 68/69/69 77/78/78
f 77/78/78 68/69/69 78/79/79
f 68/69/69 69/90/70 78/79/79
f 78/79/79 69/90/70 79/86/80
f 70/71/71 61/63/62 80/81/81
f 80/81/81 61/63/62 71/73/72
f 71/73/72 72/72/73 82/84/82
f 72/72/73 73/74/74 82/84/82
f 73/74/74 74/75/75 82/84/82
f 74/75/75 75/76/76 82/84/82
f 75/76/76 76/77/77 82/84/82
f 76/77/77 77/78/78 82/84/82
f 77/78/78 78/79/79 82/84/82
f 78/79/79 79/86/80 82/84/82
f 80/81/81 71/73/72 82/84/82
s 2
f 82/82/83 81/3/84 80/85/85
f 80/85/85 81/3/84 70/89/86
f 70/89/86 81/3/84 60/91/87
f 60/91/87 81/3/84 50/93/88
f 81/3/84 10/11/89 50/93/88
f 50/93/88 10/11/89 40/95/90
f 10/11/89 20/99/91 40/95/90
f 20/99/91 30/97/92 40/95/90
f 82/82/83 79/80/93 81/3/84
f 79/80/93 69/70/94 81/3/84
f 69/70/94 59/60/95 81/3/84
f 59/60/95 49/50/96 81/3/84
f 81/3/84 49/50/96 9/88/97
f 49/50/96 39/40/98 9/88/97
f 9/88/97 39/40/98 19/20/99
f 39/40/98 29/30/100 19/20/99
