# This file uses centimeters as units for non-parametric coordinates.

v 1.297073 -224.943939 -2.241350
v -1.296252 -224.943939 -2.241350
v -2.592914 -224.943939 0.004534
v -1.296252 -224.943939 2.250419
v 1.297072 -224.943939 2.250419
v 2.593734 -224.943939 0.004534
v 0.441627 -16.503689 -0.759660
v -0.440788 -16.503689 -0.759660
v -0.881996 -16.503689 0.004534
v -0.440788 -16.503689 0.768728
v 0.441627 -16.503689 0.768728
v 0.882834 -16.503689 0.004534
v 0.000419 0.000007 0.004534
vt 0.009766 0.009766
vt 0.020148 0.009766
vt 0.030530 0.009766
vt 0.040912 0.009766
vt 0.051294 0.009766
vt 0.061677 0.009766
vt 0.072059 0.009766
vt 0.009766 0.844649
vt 0.020148 0.844649
vt 0.030531 0.844649
vt 0.040913 0.844649
vt 0.051295 0.844649
vt 0.061677 0.844649
vt 0.072060 0.844649
vt 0.056486 0.990234
vt 0.046104 0.990234
vt 0.035722 0.990234
vt 0.025340 0.990234
vt 0.014957 0.990234
vt 0.066869 0.990234
vn 0.499983 0.008208 -0.865996
vn -0.499983 0.008208 -0.865996
vn -0.499979 0.009083 -0.865990
vn 0.499980 0.009083 -0.865990
vn -0.999966 0.008208 -0.000000
vn -0.999959 0.009083 -0.000000
vn -0.499983 0.008208 0.865996
vn -0.499979 0.009083 0.865990
vn 0.499983 0.008208 0.865996
vn 0.499979 0.009082 0.865990
vn 0.999966 0.008208 0.000000
vn 0.999959 0.009082 0.000000
vn -0.000130 1.000000 -0.000076
s 1
f 1/1/1 2/2/2 8/9/3 7/8/4
f 2/2/2 3/3/5 9/10/6 8/9/3
f 3/3/5 4/4/7 10/11/8 9/10/6
f 4/4/7 5/5/9 11/12/10 10/11/8
f 5/5/9 6/6/11 12/13/12 11/12/10
f 6/6/11 1/7/1 7/14/4 12/13/12
f 7/8/4 8/9/3 13/19/13
f 8/9/3 9/10/6 13/18/13
f 9/10/6 10/11/8 13/17/13
f 10/11/8 11/12/10 13/16/13
f 11/12/10 12/13/12 13/15/13
f 12/13/12 7/14/4 13/20/13
