# This file uses centimeters as units for non-parametric coordinates.

v -4.401547 -2.434971 4.401547
v 4.401546 -2.434971 4.401547
v -4.401547 2.434971 4.401547
v 4.401546 2.434971 4.401547
v -4.401547 2.434971 -4.401545
v 4.401546 2.434971 -4.401545
v -4.401547 -2.434971 -4.401545
v 4.401546 -2.434971 -4.401545
vt 0.500000 0.005860
vt 0.181858 0.994140
vt 0.500000 0.818142
vt 0.005859 0.005859
vt 0.500000 0.500000
vt 0.005859 0.324001
vt 0.500000 0.324001
vt 0.181858 0.324001
vt 0.181858 0.005859
vt 0.499999 0.994141
vt 0.675999 0.005860
vt 0.675999 0.324002
vt 0.181858 0.818142
vt 0.181858 0.500000
vn 0.000000 0.000000 1.000000
vn 0.000000 0.000000 1.000000
vn 0.000000 0.000000 1.000000
vn 0.000000 0.000000 1.000000
vn 0.000000 1.000000 0.000000
vn 0.000000 1.000000 0.000000
vn 0.000000 1.000000 0.000000
vn 0.000000 1.000000 0.000000
vn 0.000000 0.000000 -1.000000
vn 0.000000 0.000000 -1.000000
vn 0.000000 0.000000 -1.000000
vn 0.000000 0.000000 -1.000000
vn 0.000000 -1.000000 0.000000
vn 0.000000 -1.000000 0.000000
vn 0.000000 -1.000000 0.000000
vn 0.000000 -1.000000 0.000000
vn 1.000000 0.000000 0.000000
vn 1.000000 0.000000 0.000000
vn 1.000000 0.000000 0.000000
vn 1.000000 0.000000 0.000000
vn -1.000000 0.000000 0.000000
vn -1.000000 0.000000 0.000000
vn -1.000000 0.000000 0.000000
vn -1.000000 0.000000 0.000000
s 1
f 1/10/1 2/2/2 3/3/3
f 3/3/3 2/2/2 4/13/4
s 2
f 3/3/5 4/13/6 5/5/7
f 5/5/7 4/13/6 6/14/8
s 3
f 5/5/9 6/14/10 7/7/11
f 7/7/11 6/14/10 8/8/12
s 4
f 7/7/13 8/8/14 1/1/15
f 1/1/15 8/8/14 2/9/16
s 5
f 2/9/17 8/8/18 4/4/19
f 4/4/19 8/8/18 6/6/20
s 6
f 7/7/21 1/1/22 5/12/23
f 5/12/23 1/1/22 3/11/24
