# This file uses centimeters as units for non-parametric coordinates.

v 0.969417 -0.268490 -2.553473
v 0.741960 0.060326 -2.641578
v 0.401546 0.280031 -2.700448
v 0.000000 0.357183 -2.721121
v -0.401546 0.280034 -2.700449
v -0.741961 0.060326 -2.641578
v -0.969419 -0.268489 -2.553473
v -1.049291 -0.656353 -2.449545
v -0.969419 -1.044216 -2.345617
v -0.741961 -1.373032 -2.257511
v -0.401546 -1.592739 -2.198641
v -0.000001 -1.669889 -2.177968
v 0.401545 -1.592739 -2.198641
v 0.741959 -1.373032 -2.257511
v 0.969417 -1.044216 -2.345617
v 1.049289 -0.656353 -2.449545
v 1.791249 0.230130 -2.007851
v 1.370962 0.837701 -2.170650
v 0.741960 1.243666 -2.279428
v 0.000000 1.386223 -2.317625
v -0.741960 1.243666 -2.279428
v -1.370963 0.837703 -2.170650
v -1.791250 0.230132 -2.007853
v -1.938835 -0.486546 -1.815818
v -1.791250 -1.203224 -1.623785
v -1.370964 -1.810795 -1.460987
v -0.741962 -2.216760 -1.352209
v -0.000001 -2.359316 -1.314012
v 0.741959 -2.216760 -1.352209
v 1.370962 -1.810796 -1.460987
v 1.791248 -1.203225 -1.623785
v 1.938833 -0.486546 -1.815819
v 2.340380 0.703971 -1.118283
v 1.791249 1.497800 -1.330989
v 0.969418 2.028220 -1.473115
v 0.000000 2.214479 -1.523024
v -0.969417 2.028220 -1.473115
v -1.791250 1.497801 -1.330990
v -2.340382 0.703973 -1.118283
v -2.533209 -0.232414 -0.867379
v -2.340382 -1.168798 -0.616476
v -1.791251 -1.962626 -0.403771
v -0.969419 -2.493046 -0.261645
v -0.000001 -2.679306 -0.211737
v 0.969416 -2.493046 -0.261645
v 1.791248 -1.962627 -0.403771
v 2.340379 -1.168800 -0.616476
v 2.533208 -0.232414 -0.867379
v 2.533209 1.080892 -0.020197
v 1.938834 1.940126 -0.250427
v 1.049290 2.514249 -0.404263
v 0.000000 2.715854 -0.458283
v -1.049289 2.514250 -0.404263
v -1.938833 1.940129 -0.250428
v -2.533209 1.080895 -0.020198
v -2.741927 0.067358 0.251379
v -2.533209 -0.946178 0.522955
v -1.938836 -1.805412 0.753186
v -1.049291 -2.379535 0.907022
v -0.000001 -2.581140 0.961042
v 1.049289 -2.379535 0.907022
v 1.938833 -1.805412 0.753186
v 2.533208 -0.946178 0.522955
v 2.741926 0.067356 0.251380
v 2.340380 1.303512 1.119235
v 1.791249 2.097342 0.906528
v 0.969418 2.627762 0.764403
v 0.000000 2.814020 0.714496
v -0.969417 2.627762 0.764403
v -1.791250 2.097343 0.906529
v -2.340382 1.303514 1.119235
v -2.533209 0.367128 1.370139
v -2.340382 -0.569257 1.621041
v -1.791251 -1.363086 1.833748
v -0.969419 -1.893505 1.975874
v -0.000001 -2.079764 2.025782
v 0.969416 -1.893505 1.975874
v 1.791248 -1.363087 1.833749
v 2.340379 -0.569258 1.621042
v 2.533208 0.367127 1.370139
v 1.791249 1.307494 2.012925
v 1.370962 1.915065 1.850127
v 0.741960 2.321032 1.741348
v 0.000000 2.463587 1.703151
v -0.741960 2.321032 1.741348
v -1.370963 1.915066 1.850126
v -1.791250 1.307496 2.012924
v -1.938835 0.590819 2.204958
v -1.791250 -0.125860 2.396992
v -1.370964 -0.733431 2.559791
v -0.741962 -1.139397 2.668568
v -0.000001 -1.281953 2.706766
v 0.741959 -1.139397 2.668568
v 1.370962 -0.733433 2.559791
v 1.791248 -0.125861 2.396992
v 1.938833 0.590817 2.204958
v 0.969417 1.080053 2.479362
v 0.741960 1.408868 2.391256
v 0.401546 1.628575 2.332385
v 0.000000 1.705726 2.311712
v -0.401546 1.628576 2.332385
v -0.741961 1.408868 2.391256
v -0.969419 1.080054 2.479361
v -1.049291 0.692190 2.583289
v -0.969419 0.304327 2.687217
v -0.741961 -0.024487 2.775322
v -0.401546 -0.244195 2.834192
v -0.000001 -0.321345 2.854864
v 0.401545 -0.244195 2.834192
v 0.741959 -0.024487 2.775322
v 0.969417 0.304327 2.687217
v 1.049289 0.692190 2.583289
v -0.000001 -0.715981 -2.672080
v -0.000001 0.715982 2.672080
vt 0.199646 0.270175
vt 0.210389 0.289121
vt 0.167532 0.327798
vt 0.145249 0.289507
vt 0.227565 0.302513
vt 0.202773 0.354647
vt 0.248560 0.308312
vt 0.245606 0.365965
vt 0.270175 0.305636
vt 0.289510 0.360031
vt 0.289121 0.294892
vt 0.327800 0.337747
vt 0.302514 0.277715
vt 0.354648 0.302507
vt 0.308313 0.256721
vt 0.365966 0.259676
vt 0.305637 0.235106
vt 0.360033 0.215774
vt 0.294893 0.216160
vt 0.337751 0.177484
vt 0.277717 0.202768
vt 0.302512 0.150636
vt 0.256723 0.196969
vt 0.259680 0.139316
vt 0.235107 0.199644
vt 0.215777 0.145249
vt 0.216161 0.210388
vt 0.177485 0.167531
vt 0.202768 0.227565
vt 0.150636 0.202771
vt 0.196969 0.248559
vt 0.139316 0.245604
vt 0.122435 0.369950
vt 0.087453 0.311191
vt 0.177241 0.410848
vt 0.243526 0.427659
vt 0.311197 0.417825
vt 0.369953 0.382843
vt 0.410849 0.328040
vt 0.427661 0.261759
vt 0.417829 0.194090
vt 0.382851 0.135335
vt 0.328050 0.094436
vt 0.261769 0.077622
vt 0.194098 0.087452
vt 0.135339 0.122430
vt 0.094437 0.177233
vt 0.077621 0.243517
vt 0.161147 0.521948
vt 0.081964 0.574201
vt 0.254301 0.503979
vt 0.347238 0.523028
vt 0.425809 0.576192
vt 0.478054 0.655376
vt 0.496018 0.748525
vt 0.476969 0.841457
vt 0.423808 0.920025
vt 0.344628 0.972268
vt 0.251483 0.990234
vt 0.158553 0.971190
vt 0.079984 0.918033
vt 0.027737 0.838855
vt 0.009766 0.745710
vt 0.028807 0.652775
vt 0.187771 0.584396
vt 0.130461 0.621704
vt 0.254996 0.571862
vt 0.321901 0.586008
vt 0.378299 0.624682
vt 0.415603 0.681993
vt 0.428136 0.749217
vt 0.413989 0.816119
vt 0.375317 0.872514
vt 0.318008 0.909818
vt 0.250787 0.922351
vt 0.183886 0.908206
vt 0.127490 0.869537
vt 0.090184 0.812229
vt 0.077648 0.745006
vt 0.091792 0.678103
vt 0.211753 0.641277
vt 0.174386 0.665076
vt 0.255384 0.633590
vt 0.298636 0.643185
vt 0.334923 0.668602
vt 0.358721 0.705971
vt 0.366408 0.749602
vt 0.356812 0.792852
vt 0.331396 0.829138
vt 0.294029 0.852936
vt 0.250399 0.860622
vt 0.207149 0.851027
vt 0.170863 0.825612
vt 0.147064 0.788245
vt 0.139377 0.744615
vt 0.148970 0.701364
vt 0.233249 0.694854
vt 0.214749 0.706349
vt 0.254740 0.691315
vt 0.275950 0.696269
vt 0.293649 0.708963
vt 0.305143 0.727464
vt 0.308683 0.748955
vt 0.303728 0.770164
vt 0.291035 0.787863
vt 0.272534 0.799357
vt 0.251043 0.802897
vt 0.229834 0.797942
vt 0.212135 0.785249
vt 0.200641 0.766748
vt 0.197101 0.745257
vt 0.202055 0.724048
vt 0.252641 0.252640
vt 0.252892 0.747106
vt 0.009766 0.241491
vt 0.023987 0.335290
vt 0.032523 0.149391
vt 0.088793 0.073014
vt 0.170005 0.023984
vt 0.263797 0.009766
vt 0.355890 0.032520
vt 0.432264 0.088784
vt 0.481295 0.169991
vt 0.495518 0.263779
vt 0.472769 0.355872
vt 0.416509 0.432250
vt 0.335303 0.481287
vt 0.241512 0.495515
vt 0.149412 0.472768
vt 0.073027 0.416505
vn 0.420512 -0.073095 -0.904338
vn 0.325951 0.070327 -0.942767
vn 0.705628 0.104272 -0.700869
vn 0.543953 0.344359 -0.765200
vn 0.181766 0.167877 -0.968906
vn 0.299467 0.506409 -0.808622
vn 0.009910 0.204704 -0.978774
vn 0.009390 0.565752 -0.824522
vn -0.163455 0.175203 -0.970869
vn -0.282116 0.513352 -0.810482
vn -0.311936 0.083864 -0.946395
vn -0.530673 0.357187 -0.768637
vn -0.412927 -0.055408 -0.909077
vn -0.698441 0.121030 -0.705359
vn -0.451054 -0.221409 -0.864597
vn -0.759877 -0.159163 -0.630281
vn -0.420512 -0.388867 -0.819727
vn -0.705628 -0.440736 -0.554835
vn -0.325951 -0.532288 -0.781297
vn -0.543954 -0.680824 -0.490503
vn -0.181766 -0.629838 -0.755159
vn -0.299467 -0.842875 -0.447082
vn -0.009910 -0.666666 -0.745291
vn -0.009390 -0.902216 -0.431181
vn 0.163455 -0.637165 -0.753196
vn 0.282117 -0.849816 -0.445222
vn 0.311936 -0.545825 -0.777670
vn 0.530674 -0.693651 -0.487066
vn 0.412928 -0.406554 -0.814988
vn 0.698441 -0.457495 -0.550344
vn 0.451054 -0.240553 -0.859467
vn 0.759876 -0.177303 -0.625421
vn 0.871626 0.255282 -0.418449
vn 0.669468 0.551380 -0.497787
vn 0.365390 0.750212 -0.551064
vn 0.005684 0.821508 -0.570168
vn -0.354886 0.754415 -0.552190
vn -0.661429 0.559146 -0.499868
vn -0.867276 0.265428 -0.421166
vn -0.941087 -0.082021 -0.328068
vn -0.871626 -0.430305 -0.234745
vn -0.669468 -0.726403 -0.155406
vn -0.365390 -0.925235 -0.102130
vn -0.005684 -0.996531 -0.083026
vn 0.354887 -0.929437 -0.101004
vn 0.661429 -0.734168 -0.153326
vn 0.867275 -0.440451 -0.232027
vn 0.941086 -0.093003 -0.325126
vn 0.923879 0.369644 -0.099046
vn 0.707107 0.683012 -0.183013
vn 0.382684 0.892399 -0.239118
vn 0.000000 0.965926 -0.258819
vn -0.382683 0.892399 -0.239118
vn -0.707106 0.683013 -0.183013
vn -0.923879 0.369644 -0.099046
vn -1.000000 0.000000 0.000000
vn -0.923880 -0.369643 0.099046
vn -0.707107 -0.683012 0.183012
vn -0.382684 -0.892399 0.239118
vn 0.000000 -0.965926 0.258819
vn 0.382684 -0.892399 0.239118
vn 0.707107 -0.683013 0.183013
vn 0.923879 -0.369644 0.099046
vn 1.000000 -0.000000 0.000000
vn 0.862222 0.442308 0.246855
vn 0.657543 0.734307 0.168614
vn 0.352759 0.928421 0.116601
vn -0.005730 0.995097 0.098735
vn -0.363345 0.924185 0.117736
vn -0.665645 0.726481 0.170711
vn -0.866607 0.432081 0.249595
vn -0.935635 0.085808 0.342379
vn -0.862222 -0.259622 0.434936
vn -0.657543 -0.551621 0.513177
vn -0.352759 -0.745735 0.565190
vn 0.005730 -0.812412 0.583056
vn 0.363346 -0.741500 0.564055
vn 0.665646 -0.543795 0.511080
vn 0.866607 -0.249396 0.432196
vn 0.935635 0.096877 0.339413
vn 0.624527 0.449237 0.638868
vn 0.474207 0.660342 0.582303
vn 0.251693 0.799812 0.544932
vn -0.009138 0.846416 0.532444
vn -0.268578 0.793057 0.546742
vn -0.487130 0.647859 0.585648
vn -0.631521 0.432928 0.643238
vn -0.679768 0.180984 0.710746
vn -0.624527 -0.069616 0.777894
vn -0.474207 -0.280721 0.834460
vn -0.251693 -0.420192 0.871831
vn 0.009138 -0.466795 0.884318
vn 0.268578 -0.413437 0.870021
vn 0.487130 -0.268239 0.831115
vn 0.631521 -0.053306 0.773524
vn 0.679768 0.198637 0.706016
vn 0.250405 0.356469 0.900126
vn 0.188730 0.440843 0.877519
vn 0.098323 0.495996 0.862740
vn -0.007051 0.513532 0.858041
vn -0.111353 0.490783 0.864137
vn -0.198703 0.431210 0.880099
vn -0.255802 0.343884 0.903498
vn -0.273957 0.242100 0.930772
vn -0.250404 0.141351 0.957767
vn -0.188729 0.056978 0.980375
vn -0.098324 0.001825 0.995153
vn 0.007052 -0.015711 0.999852
vn 0.111352 0.007038 0.993756
vn 0.198702 0.066611 0.977794
vn 0.255801 0.153937 0.954395
vn 0.273957 0.255722 0.927121
vn -0.000000 -0.258819 -0.965926
vn -0.000000 0.258819 0.965926
s 1
f 1/1/1 2/2/2 17/4/3
f 17/4/3 2/2/2 18/3/4
f 2/2/2 3/5/5 18/3/4
f 18/3/4 3/5/5 19/6/6
f 3/5/5 4/7/7 19/6/6
f 19/6/6 4/7/7 20/8/8
f 4/7/7 5/9/9 20/8/8
f 20/8/8 5/9/9 21/10/10
f 5/9/9 6/11/11 21/10/10
f 21/10/10 6/11/11 22/12/12
f 6/11/11 7/13/13 22/12/12
f 22/12/12 7/13/13 23/14/14
f 7/13/13 8/15/15 23/14/14
f 23/14/14 8/15/15 24/16/16
f 8/15/15 9/17/17 24/16/16
f 24/16/16 9/17/17 25/18/18
f 9/17/17 10/19/19 25/18/18
f 25/18/18 10/19/19 26/20/20
f 10/19/19 11/21/21 26/20/20
f 26/20/20 11/21/21 27/22/22
f 11/21/21 12/23/23 27/22/22
f 27/22/22 12/23/23 28/24/24
f 12/23/23 13/25/25 28/24/24
f 28/24/24 13/25/25 29/26/26
f 13/25/25 14/27/27 29/26/26
f 29/26/26 14/27/27 30/28/28
f 14/27/27 15/29/29 30/28/28
f 30/28/28 15/29/29 31/30/30
f 15/29/29 16/31/31 31/30/30
f 31/30/30 16/31/31 32/32/32
f 16/31/31 1/1/1 32/32/32
f 32/32/32 1/1/1 17/4/3
f 17/4/3 18/3/4 33/34/33
f 33/34/33 18/3/4 34/33/34
f 18/3/4 19/6/6 34/33/34
f 34/33/34 19/6/6 35/35/35
f 19/6/6 20/8/8 35/35/35
f 35/35/35 20/8/8 36/36/36
f 20/8/8 21/10/10 36/36/36
f 36/36/36 21/10/10 37/37/37
f 21/10/10 22/12/12 37/37/37
f 37/37/37 22/12/12 38/38/38
f 22/12/12 23/14/14 38/38/38
f 38/38/38 23/14/14 39/39/39
f 23/14/14 24/16/16 39/39/39
f 39/39/39 24/16/16 40/40/40
f 24/16/16 25/18/18 40/40/40
f 40/40/40 25/18/18 41/41/41
f 25/18/18 26/20/20 41/41/41
f 41/41/41 26/20/20 42/42/42
f 26/20/20 27/22/22 42/42/42
f 42/42/42 27/22/22 43/43/43
f 27/22/22 28/24/24 43/43/43
f 43/43/43 28/24/24 44/44/44
f 28/24/24 29/26/26 44/44/44
f 44/44/44 29/26/26 45/45/45
f 29/26/26 30/28/28 45/45/45
f 45/45/45 30/28/28 46/46/46
f 30/28/28 31/30/30 46/46/46
f 46/46/46 31/30/30 47/47/47
f 31/30/30 32/32/32 47/47/47
f 47/47/47 32/32/32 48/48/48
f 32/32/32 17/4/3 48/48/48
f 48/48/48 17/4/3 33/34/33
f 33/34/33 34/33/34 49/116/49
f 49/116/49 34/33/34 50/130/50
f 34/33/34 35/35/35 50/130/50
f 50/130/50 35/35/35 51/129/51
f 35/35/35 36/36/36 51/129/51
f 51/129/51 36/36/36 52/128/52
f 36/36/36 37/37/37 52/128/52
f 52/128/52 37/37/37 53/127/53
f 37/37/37 38/38/38 53/127/53
f 53/127/53 38/38/38 54/126/54
f 38/38/38 39/39/39 54/126/54
f 54/126/54 39/39/39 55/125/55
f 39/39/39 40/40/40 55/125/55
f 55/125/55 40/40/40 56/124/56
f 40/40/40 41/41/41 56/124/56
f 56/124/56 41/41/41 57/123/57
f 41/41/41 42/42/42 57/123/57
f 57/123/57 42/42/42 58/122/58
f 42/42/42 43/43/43 58/122/58
f 58/122/58 43/43/43 59/121/59
f 43/43/43 44/44/44 59/121/59
f 59/121/59 44/44/44 60/120/60
f 44/44/44 45/45/45 60/120/60
f 60/120/60 45/45/45 61/119/61
f 45/45/45 46/46/46 61/119/61
f 61/119/61 46/46/46 62/118/62
f 46/46/46 47/47/47 62/118/62
f 62/118/62 47/47/47 63/117/63
f 47/47/47 48/48/48 63/117/63
f 63/117/63 48/48/48 64/115/64
f 48/48/48 33/34/33 64/115/64
f 64/115/64 33/34/33 49/116/49
f 49/50/49 50/49/50 65/66/65
f 65/66/65 50/49/50 66/65/66
f 50/49/50 51/51/51 66/65/66
f 66/65/66 51/51/51 67/67/67
f 51/51/51 52/52/52 67/67/67
f 67/67/67 52/52/52 68/68/68
f 52/52/52 53/53/53 68/68/68
f 68/68/68 53/53/53 69/69/69
f 53/53/53 54/54/54 69/69/69
f 69/69/69 54/54/54 70/70/70
f 54/54/54 55/55/55 70/70/70
f 70/70/70 55/55/55 71/71/71
f 55/55/55 56/56/56 71/71/71
f 71/71/71 56/56/56 72/72/72
f 56/56/56 57/57/57 72/72/72
f 72/72/72 57/57/57 73/73/73
f 57/57/57 58/58/58 73/73/73
f 73/73/73 58/58/58 74/74/74
f 58/58/58 59/59/59 74/74/74
f 74/74/74 59/59/59 75/75/75
f 59/59/59 60/60/60 75/75/75
f 75/75/75 60/60/60 76/76/76
f 60/60/60 61/61/61 76/76/76
f 76/76/76 61/61/61 77/77/77
f 61/61/61 62/62/62 77/77/77
f 77/77/77 62/62/62 78/78/78
f 62/62/62 63/63/63 78/78/78
f 78/78/78 63/63/63 79/79/79
f 63/63/63 64/64/64 79/79/79
f 79/79/79 64/64/64 80/80/80
f 64/64/64 49/50/49 80/80/80
f 80/80/80 49/50/49 65/66/65
f 65/66/65 66/65/66 81/82/81
f 81/82/81 66/65/66 82/81/82
f 66/65/66 67/67/67 82/81/82
f 82/81/82 67/67/67 83/83/83
f 67/67/67 68/68/68 83/83/83
f 83/83/83 68/68/68 84/84/84
f 68/68/68 69/69/69 84/84/84
f 84/84/84 69/69/69 85/85/85
f 69/69/69 70/70/70 85/85/85
f 85/85/85 70/70/70 86/86/86
f 70/70/70 71/71/71 86/86/86
f 86/86/86 71/71/71 87/87/87
f 71/71/71 72/72/72 87/87/87
f 87/87/87 72/72/72 88/88/88
f 72/72/72 73/73/73 88/88/88
f 88/88/88 73/73/73 89/89/89
f 73/73/73 74/74/74 89/89/89
f 89/89/89 74/74/74 90/90/90
f 74/74/74 75/75/75 90/90/90
f 90/90/90 75/75/75 91/91/91
f 75/75/75 76/76/76 91/91/91
f 91/91/91 76/76/76 92/92/92
f 76/76/76 77/77/77 92/92/92
f 92/92/92 77/77/77 93/93/93
f 77/77/77 78/78/78 93/93/93
f 93/93/93 78/78/78 94/94/94
f 78/78/78 79/79/79 94/94/94
f 94/94/94 79/79/79 95/95/95
f 79/79/79 80/80/80 95/95/95
f 95/95/95 80/80/80 96/96/96
f 80/80/80 65/66/65 96/96/96
f 96/96/96 65/66/65 81/82/81
f 81/82/81 82/81/82 97/98/97
f 97/98/97 82/81/82 98/97/98
f 82/81/82 83/83/83 98/97/98
f 98/97/98 83/83/83 99/99/99
f 83/83/83 84/84/84 99/99/99
f 99/99/99 84/84/84 100/100/100
f 84/84/84 85/85/85 100/100/100
f 100/100/100 85/85/85 101/101/101
f 85/85/85 86/86/86 101/101/101
f 101/101/101 86/86/86 102/102/102
f 86/86/86 87/87/87 102/102/102
f 102/102/102 87/87/87 103/103/103
f 87/87/87 88/88/88 103/103/103
f 103/103/103 88/88/88 104/104/104
f 88/88/88 89/89/89 104/104/104
f 104/104/104 89/89/89 105/105/105
f 89/89/89 90/90/90 105/105/105
f 105/105/105 90/90/90 106/106/106
f 90/90/90 91/91/91 106/106/106
f 106/106/106 91/91/91 107/107/107
f 91/91/91 92/92/92 107/107/107
f 107/107/107 92/92/92 108/108/108
f 92/92/92 93/93/93 108/108/108
f 108/108/108 93/93/93 109/109/109
f 93/93/93 94/94/94 109/109/109
f 109/109/109 94/94/94 110/110/110
f 94/94/94 95/95/95 110/110/110
f 110/110/110 95/95/95 111/111/111
f 95/95/95 96/96/96 111/111/111
f 111/111/111 96/96/96 112/112/112
f 96/96/96 81/82/81 112/112/112
f 112/112/112 81/82/81 97/98/97
f 2/2/2 1/1/1 113/113/113
f 3/5/5 2/2/2 113/113/113
f 4/7/7 3/5/5 113/113/113
f 5/9/9 4/7/7 113/113/113
f 6/11/11 5/9/9 113/113/113
f 7/13/13 6/11/11 113/113/113
f 8/15/15 7/13/13 113/113/113
f 9/17/17 8/15/15 113/113/113
f 10/19/19 9/17/17 113/113/113
f 11/21/21 10/19/19 113/113/113
f 12/23/23 11/21/21 113/113/113
f 13/25/25 12/23/23 113/113/113
f 14/27/27 13/25/25 113/113/113
f 15/29/29 14/27/27 113/113/113
f 16/31/31 15/29/29 113/113/113
f 1/1/1 16/31/31 113/113/113
f 97/98/97 98/97/98 114/114/114
f 98/97/98 99/99/99 114/114/114
f 99/99/99 100/100/100 114/114/114
f 100/100/100 101/101/101 114/114/114
f 101/101/101 102/102/102 114/114/114
f 102/102/102 103/103/103 114/114/114
f 103/103/103 104/104/104 114/114/114
f 104/104/104 105/105/105 114/114/114
f 105/105/105 106/106/106 114/114/114
f 106/106/106 107/107/107 114/114/114
f 107/107/107 108/108/108 114/114/114
f 108/108/108 109/109/109 114/114/114
f 109/109/109 110/110/110 114/114/114
f 110/110/110 111/111/111 114/114/114
f 111/111/111 112/112/112 114/114/114
f 112/112/112 97/98/97 114/114/114
